<svg width="25" height="31" viewBox="0 0 25 31" fill="none" xmlns="http://www.w3.org/2000/svg">
<path d="M12.9248 0.707031V0.708008H12.9258L12.9277 0.709961V0.710938H12.9287L12.9346 0.716797L12.9355 0.71875L12.9375 0.719727L12.9434 0.725586L12.9443 0.727539L12.9463 0.728516L12.96 0.742188C12.9606 0.742872 12.9612 0.744339 12.9619 0.745117C12.9626 0.745806 12.9641 0.746399 12.9648 0.74707L13.0576 0.839844C13.0589 0.84116 13.0602 0.843343 13.0615 0.844727C13.0629 0.846057 13.065 0.847302 13.0664 0.848633C13.0677 0.849878 13.0691 0.851278 13.0703 0.852539C13.0717 0.853913 13.0729 0.855994 13.0742 0.857422C13.0756 0.858813 13.0777 0.859948 13.0791 0.861328C13.0805 0.862726 13.0816 0.864764 13.083 0.866211C13.0844 0.867617 13.0864 0.868725 13.0879 0.870117L13.1562 0.938477C13.158 0.940185 13.1594 0.942581 13.1611 0.944336C13.1629 0.946054 13.1652 0.947507 13.167 0.949219C13.1687 0.950949 13.1702 0.953306 13.1719 0.955078C13.1736 0.956811 13.176 0.958238 13.1777 0.959961L13.4375 1.21973C13.4399 1.2221 13.442 1.22513 13.4443 1.22754C13.4467 1.22992 13.4497 1.232 13.4521 1.23438L13.4678 1.25C13.4702 1.25238 13.4722 1.2554 13.4746 1.25781C13.477 1.2602 13.48 1.26227 13.4824 1.26465L13.5947 1.37695C13.5974 1.37966 13.5998 1.38301 13.6025 1.38574C13.6052 1.38844 13.6086 1.39086 13.6113 1.39355L13.9375 1.71973C13.9405 1.72277 13.9433 1.72643 13.9463 1.72949L13.9756 1.75879C13.9788 1.76201 13.9831 1.76533 13.9863 1.76855L14.0654 1.84766C14.0687 1.85097 14.0719 1.85506 14.0752 1.8584C14.0785 1.86172 14.0826 1.86484 14.0859 1.86816L14.168 1.9502C14.1713 1.95356 14.1744 1.95755 14.1777 1.96094C14.1811 1.96429 14.1851 1.96735 14.1885 1.9707L14.2627 2.04492C14.2661 2.04828 14.2691 2.05228 14.2725 2.05566C14.2758 2.05903 14.2798 2.06207 14.2832 2.06543L14.4131 2.19531C14.4167 2.19892 14.4202 2.2034 14.4238 2.20703C14.4274 2.21063 14.4319 2.21417 14.4355 2.21777L14.5127 2.29492C14.5164 2.29858 14.5198 2.30296 14.5234 2.30664C14.5271 2.31032 14.5315 2.31371 14.5352 2.31738L14.5576 2.33984C14.5613 2.34352 14.5647 2.34786 14.5684 2.35156C14.572 2.35525 14.5764 2.35862 14.5801 2.3623L14.7285 2.51074C14.7322 2.51443 14.7356 2.51875 14.7393 2.52246C14.7429 2.52615 14.7473 2.52952 14.751 2.5332L14.8213 2.60352C14.825 2.6072 14.8284 2.61153 14.832 2.61523C14.8357 2.61893 14.84 2.62229 14.8438 2.62598L14.9258 2.70801C14.9297 2.71188 14.9336 2.71681 14.9375 2.7207C14.9414 2.72458 14.9463 2.72854 14.9502 2.73242L15.0205 2.80273C15.0244 2.80664 15.0283 2.8115 15.0322 2.81543C15.0361 2.81934 15.041 2.82324 15.0449 2.82715L15.0801 2.8623C15.084 2.86623 15.0879 2.87105 15.0918 2.875C15.0957 2.87892 15.1005 2.8828 15.1045 2.88672L15.1279 2.91016C15.1319 2.9141 15.1357 2.91889 15.1396 2.92285C15.1436 2.92679 15.1484 2.93064 15.1523 2.93457L15.3086 3.09082C15.3126 3.0948 15.3163 3.09952 15.3203 3.10352C15.3243 3.1075 15.329 3.11126 15.333 3.11523L15.3691 3.15137C15.3731 3.15535 15.3769 3.16006 15.3809 3.16406C15.3849 3.16806 15.3895 3.17179 15.3936 3.17578L15.5029 3.28516C15.5069 3.28917 15.5106 3.29383 15.5146 3.29785C15.5187 3.30186 15.5233 3.30557 15.5273 3.30957L16.0391 3.82129C16.0431 3.82528 16.0468 3.82998 16.0508 3.83398C16.0548 3.83796 16.0595 3.84173 16.0635 3.8457L16.1357 3.91797C16.1397 3.92193 16.1435 3.92669 16.1475 3.93066C16.1514 3.93464 16.1562 3.93842 16.1602 3.94238L16.208 3.99023C16.212 3.99419 16.2158 3.99896 16.2197 4.00293C16.2237 4.00689 16.2285 4.0107 16.2324 4.01465L16.4463 4.22852C16.4502 4.2324 16.4541 4.23731 16.458 4.24121C16.4619 4.24507 16.4659 4.24907 16.4697 4.25293C16.4736 4.25681 16.4785 4.26078 16.4824 4.26465L16.5645 4.34668C16.5682 4.35038 16.5715 4.35469 16.5752 4.3584C16.5789 4.36209 16.5832 4.36547 16.5869 4.36914L16.6572 4.43945C16.6609 4.44314 16.6643 4.44748 16.668 4.45117C16.6717 4.45487 16.676 4.45823 16.6797 4.46191L16.7031 4.48535C16.7068 4.48905 16.7102 4.49337 16.7139 4.49707C16.7176 4.50076 16.7219 4.50414 16.7256 4.50781L16.9062 4.68848C16.9099 4.69213 16.9134 4.69653 16.917 4.7002C16.9206 4.70385 16.9251 4.7073 16.9287 4.71094C16.9322 4.71447 16.9359 4.71815 16.9395 4.72168C16.9431 4.72531 16.9466 4.72975 16.9502 4.7334C16.9538 4.73703 16.9583 4.74053 16.9619 4.74414L16.9834 4.76562C16.987 4.76922 16.9906 4.77373 16.9941 4.77734C16.9977 4.78094 17.0022 4.7845 17.0059 4.78809L17.167 4.94922C17.1704 4.95259 17.1734 4.95658 17.1768 4.95996C17.1801 4.96333 17.1841 4.96638 17.1875 4.96973L17.3818 5.16406C17.3851 5.16733 17.3883 5.17152 17.3916 5.1748C17.3949 5.17806 17.3991 5.18133 17.4023 5.18457L17.4805 5.2627C17.4835 5.26574 17.4862 5.26941 17.4893 5.27246C17.4923 5.27551 17.496 5.27823 17.499 5.28125L17.5186 5.30078C17.5216 5.30383 17.5243 5.30749 17.5273 5.31055C17.5304 5.31359 17.5341 5.31632 17.5371 5.31934L17.584 5.36621C17.587 5.36924 17.5898 5.37294 17.5928 5.37598C17.5958 5.379 17.5995 5.38176 17.6025 5.38477C17.6054 5.38765 17.6085 5.39068 17.6113 5.39355C17.8417 5.62389 18.2575 5.85599 18.8564 6.05566C19.4382 6.24956 20.107 6.38567 20.7568 6.47852C21.4023 6.57071 22.0059 6.61728 22.4492 6.64062C22.67 6.65225 22.85 6.6573 22.9727 6.66016C23.0334 6.66157 23.0805 6.66274 23.1113 6.66309H24.374L24.1348 7.85938V7.86035L24.1338 7.86133C24.1336 7.86239 24.1332 7.86437 24.1328 7.86621C24.132 7.87008 24.1313 7.87573 24.1299 7.88281C24.1268 7.89815 24.1222 7.92161 24.1162 7.95117C24.1042 8.01029 24.0865 8.09715 24.0635 8.20898C24.0173 8.4336 23.9492 8.76002 23.8633 9.16504C23.6915 9.97494 23.4459 11.1037 23.1514 12.3799C22.5644 14.9235 21.7746 18.0874 20.9775 20.4785C20.1187 23.0547 18.022 25.5357 16.2441 27.3135C15.3402 28.2174 14.4879 28.9698 13.8613 29.4961C13.5478 29.7595 13.2893 29.9675 13.1084 30.1104C13.0181 30.1817 12.9468 30.2375 12.8975 30.2754C12.8729 30.2942 12.8532 30.3092 12.8398 30.3193C12.8334 30.3242 12.8279 30.3283 12.8242 30.3311C12.8225 30.3323 12.8204 30.3332 12.8193 30.334L12.8184 30.335V30.3359L12.2178 29.5361L12.8174 30.3359L12.3232 30.707L11.7705 30.4307L12.2178 29.5361L11.7695 30.4297H11.7686L11.7607 30.4258C11.7561 30.4234 11.7497 30.4199 11.7422 30.416C11.727 30.4082 11.7058 30.3976 11.6797 30.3838C11.6265 30.3557 11.5505 30.3147 11.4561 30.2617C11.267 30.1556 11.0004 29.9985 10.6777 29.792C10.033 29.3794 9.15906 28.7623 8.2334 27.9395C6.39124 26.3019 4.28317 23.7948 3.43555 20.4043C3.43255 20.3923 3.42976 20.3802 3.42676 20.3682C3.42371 20.356 3.42004 20.3432 3.41699 20.3311C3.41399 20.319 3.41121 20.3069 3.4082 20.2949C3.40516 20.2827 3.40246 20.27 3.39941 20.2578C3.39639 20.2457 3.39267 20.2338 3.38965 20.2217C3.3866 20.2095 3.38391 20.1968 3.38086 20.1846C3.37786 20.1726 3.37507 20.1604 3.37207 20.1484C3.36902 20.1363 3.36535 20.1235 3.3623 20.1113C3.3593 20.0993 3.35652 20.0872 3.35352 20.0752C3.35047 20.063 3.3468 20.0503 3.34375 20.0381C3.34075 20.0261 3.33796 20.014 3.33496 20.002C3.33192 19.9898 3.32922 19.977 3.32617 19.9648C3.32315 19.9528 3.31943 19.9408 3.31641 19.9287C3.31336 19.9165 3.31066 19.9038 3.30762 19.8916C3.30462 19.8796 3.30183 19.8675 3.29883 19.8555C3.29581 19.8434 3.29207 19.8314 3.28906 19.8193C3.28602 19.8072 3.28332 19.7944 3.28027 19.7822C3.27727 19.7702 3.27449 19.7581 3.27148 19.7461C3.26844 19.7339 3.26476 19.7212 3.26172 19.709C3.25872 19.697 3.25593 19.6849 3.25293 19.6729C3.24989 19.6607 3.24621 19.6479 3.24316 19.6357C3.24016 19.6237 3.23738 19.6116 3.23438 19.5996C3.23133 19.5874 3.22863 19.5747 3.22559 19.5625C3.22257 19.5504 3.21883 19.5384 3.21582 19.5264C3.21282 19.5144 3.21003 19.5022 3.20703 19.4902C3.20399 19.4781 3.20128 19.4653 3.19824 19.4531C3.19522 19.441 3.1915 19.4291 3.18848 19.417C3.18544 19.4048 3.18273 19.392 3.17969 19.3799C3.17669 19.3679 3.1739 19.3558 3.1709 19.3438C3.16788 19.3317 3.16415 19.3197 3.16113 19.3076C3.1581 19.2955 3.15538 19.2827 3.15234 19.2705C3.14934 19.2585 3.14656 19.2464 3.14355 19.2344C3.14054 19.2223 3.1368 19.2103 3.13379 19.1982C3.13076 19.1861 3.12803 19.1733 3.125 19.1611C3.122 19.1491 3.11921 19.137 3.11621 19.125C3.1132 19.113 3.10945 19.1009 3.10645 19.0889C3.10341 19.0767 3.10069 19.0639 3.09766 19.0518C3.09465 19.0397 3.09187 19.0276 3.08887 19.0156C3.08585 19.0036 3.08212 18.9916 3.0791 18.9795C3.07607 18.9674 3.07334 18.9545 3.07031 18.9424C3.06732 18.9304 3.06452 18.9182 3.06152 18.9062C3.0585 18.8942 3.05477 18.8822 3.05176 18.8701C3.04876 18.8581 3.04597 18.846 3.04297 18.834C3.03994 18.8219 3.0372 18.809 3.03418 18.7969C3.03119 18.7849 3.0274 18.7727 3.02441 18.7607L2.99805 18.6523C2.99505 18.6404 2.99127 18.6282 2.98828 18.6162C2.98526 18.6041 2.98251 18.5912 2.97949 18.5791C2.97651 18.5672 2.97369 18.5549 2.9707 18.543C2.9677 18.531 2.96394 18.5188 2.96094 18.5068L2.93457 18.3984C2.93156 18.3864 2.92781 18.3743 2.9248 18.3623L2.89844 18.2539C2.89544 18.2419 2.89167 18.2298 2.88867 18.2178L2.8623 18.1094C2.8593 18.0974 2.85554 18.0852 2.85254 18.0732L2.82617 17.9648C2.82325 17.9531 2.82031 17.9414 2.81738 17.9297C2.8144 17.9178 2.81059 17.9054 2.80762 17.8936L2.78125 17.7852C2.77832 17.7735 2.77539 17.7617 2.77246 17.75C2.76948 17.7381 2.76568 17.7258 2.7627 17.7139L2.74512 17.6416C2.74219 17.6299 2.73925 17.6181 2.73633 17.6064C2.73335 17.5945 2.73052 17.5822 2.72754 17.5703L2.71875 17.5352C2.71577 17.5233 2.71196 17.5109 2.70898 17.499C2.70602 17.4872 2.70316 17.4747 2.7002 17.4629C2.69727 17.4512 2.69433 17.4394 2.69141 17.4277C2.68844 17.4159 2.68558 17.4035 2.68262 17.3916C2.67969 17.3799 2.67675 17.3681 2.67383 17.3564C2.67086 17.3446 2.668 17.3322 2.66504 17.3203C2.66211 17.3086 2.65917 17.2969 2.65625 17.2852C2.65329 17.2733 2.65042 17.2609 2.64746 17.249C2.64453 17.2373 2.64062 17.2256 2.6377 17.2139C2.63477 17.2022 2.63183 17.1904 2.62891 17.1787C2.62595 17.1669 2.62307 17.1544 2.62012 17.1426L2.60254 17.0723C2.59959 17.0605 2.5967 17.0479 2.59375 17.0361L2.5498 16.8604C2.54687 16.8486 2.54395 16.8359 2.54102 16.8242L2.47949 16.5781C2.47664 16.5667 2.47355 16.5553 2.4707 16.5439L2.43555 16.4033C2.4327 16.3919 2.4296 16.3805 2.42676 16.3691L2.40918 16.2988C2.40633 16.2874 2.40324 16.276 2.40039 16.2646C2.3975 16.2531 2.39449 16.2411 2.3916 16.2295C2.38877 16.2182 2.38662 16.2066 2.38379 16.1953L2.375 16.1602C2.37215 16.1488 2.36906 16.1374 2.36621 16.126C2.36333 16.1144 2.3603 16.1023 2.35742 16.0908C2.35457 16.0794 2.35148 16.068 2.34863 16.0566C2.34576 16.0451 2.34272 16.033 2.33984 16.0215C2.337 16.0101 2.3339 15.9987 2.33105 15.9873C2.32823 15.976 2.32607 15.9644 2.32324 15.9531C2.32037 15.9417 2.31732 15.9294 2.31445 15.918L2.28809 15.8154C2.28527 15.8042 2.28309 15.7925 2.28027 15.7812C2.27746 15.77 2.27429 15.7583 2.27148 15.7471C2.26863 15.7357 2.26554 15.7233 2.2627 15.7119C2.25988 15.7007 2.25671 15.689 2.25391 15.6777C2.2511 15.6665 2.2489 15.6548 2.24609 15.6436C2.24332 15.6325 2.24007 15.6214 2.2373 15.6104L2.21973 15.542C2.21691 15.5307 2.21473 15.5191 2.21191 15.5078L2.19434 15.4395C2.19158 15.4284 2.18927 15.4173 2.18652 15.4062L2.16895 15.3379C2.16619 15.3269 2.16388 15.3157 2.16113 15.3047C2.15832 15.2935 2.15515 15.2817 2.15234 15.2705C2.14957 15.2594 2.14632 15.2484 2.14355 15.2373C2.14075 15.2261 2.13854 15.2143 2.13574 15.2031C2.13297 15.192 2.12972 15.181 2.12695 15.1699C2.12416 15.1587 2.12193 15.1469 2.11914 15.1357L2.10156 15.0693C2.09882 15.0584 2.09649 15.0471 2.09375 15.0361C2.09097 15.025 2.08774 15.0131 2.08496 15.002C2.08221 14.991 2.07989 14.9797 2.07715 14.9688C2.07438 14.9577 2.07113 14.9466 2.06836 14.9355C2.06561 14.9245 2.0633 14.9133 2.06055 14.9023C2.05778 14.8913 2.05452 14.8802 2.05176 14.8691C2.04901 14.8581 2.04669 14.8469 2.04395 14.8359C2.04118 14.8249 2.03791 14.8138 2.03516 14.8027C2.0324 14.7917 2.03009 14.7805 2.02734 14.7695C2.02459 14.7585 2.0213 14.7473 2.01855 14.7363C2.01583 14.7254 2.01347 14.714 2.01074 14.7031C2.00804 14.6923 2.00465 14.6817 2.00195 14.6709C1.99922 14.66 1.99687 14.6486 1.99414 14.6377C1.9914 14.6267 1.98809 14.6154 1.98535 14.6045C1.98267 14.5938 1.98021 14.583 1.97754 14.5723C1.97482 14.5614 1.97245 14.5499 1.96973 14.5391C1.967 14.5282 1.96366 14.5167 1.96094 14.5059L1.94531 14.4414C1.9426 14.4305 1.93923 14.419 1.93652 14.4082L1.9209 14.3438C1.91819 14.3329 1.91481 14.3213 1.91211 14.3105L1.89648 14.2461C1.89379 14.2353 1.89038 14.2246 1.8877 14.2139L1.86426 14.1172C1.86158 14.1065 1.85814 14.0956 1.85547 14.085L1.83984 14.0205C1.83724 14.0101 1.83463 13.9996 1.83203 13.9893L1.81641 13.9248C1.81378 13.9143 1.81023 13.904 1.80762 13.8936C1.80497 13.883 1.80244 13.8719 1.7998 13.8613C1.7972 13.8509 1.79459 13.8405 1.79199 13.8301C1.78936 13.8195 1.78681 13.8084 1.78418 13.7979L1.76855 13.7354C1.76593 13.7249 1.76336 13.7136 1.76074 13.7031L1.69824 13.4531C1.69572 13.443 1.69295 13.4329 1.69043 13.4229L1.6748 13.3604C1.67228 13.3503 1.66951 13.3402 1.66699 13.3301C1.66443 13.3198 1.66174 13.3091 1.65918 13.2988C1.65665 13.2887 1.65389 13.2786 1.65137 13.2686C1.64882 13.2583 1.64708 13.2475 1.64453 13.2373L1.62109 13.1465C1.61856 13.1363 1.61581 13.1253 1.61328 13.1152C1.6108 13.1053 1.60893 13.0949 1.60645 13.085L1.58301 12.9941C1.58058 12.9844 1.5786 12.9745 1.57617 12.9648L1.56055 12.9043C1.55807 12.8944 1.55619 12.8839 1.55371 12.874C1.55126 12.8642 1.54834 12.8545 1.5459 12.8447C1.54341 12.8348 1.54056 12.8244 1.53809 12.8145C1.53566 12.8047 1.53367 12.7949 1.53125 12.7852C1.52878 12.7753 1.52591 12.7648 1.52344 12.7549C1.521 12.7451 1.51806 12.7353 1.51562 12.7256C1.5132 12.7159 1.51121 12.706 1.50879 12.6963C1.50636 12.6866 1.5034 12.6767 1.50098 12.667C1.49853 12.6572 1.49659 12.6465 1.49414 12.6367C1.49172 12.627 1.48875 12.6171 1.48633 12.6074C1.48391 12.5978 1.4819 12.5878 1.47949 12.5781C1.47707 12.5684 1.4741 12.5585 1.47168 12.5488C1.46928 12.5392 1.46724 12.5291 1.46484 12.5195C1.46247 12.51 1.4594 12.5007 1.45703 12.4912C1.45463 12.4816 1.45259 12.4715 1.4502 12.4619C1.44778 12.4523 1.44479 12.4423 1.44238 12.4326C1.43999 12.423 1.43793 12.4129 1.43555 12.4033C1.43319 12.3939 1.43106 12.3844 1.42871 12.375C1.42631 12.3654 1.42329 12.3553 1.4209 12.3457L1.40723 12.2891C1.40484 12.2795 1.40179 12.2693 1.39941 12.2598L1.38574 12.2031C1.38338 12.1937 1.38029 12.1842 1.37793 12.1748L1.35742 12.0898C1.35508 12.0805 1.35195 12.0709 1.34961 12.0615C1.34733 12.0524 1.34504 12.0433 1.34277 12.0342L1.3291 11.9775C1.32682 11.9684 1.32454 11.9593 1.32227 11.9502C1.31995 11.9409 1.31774 11.9311 1.31543 11.9219L1.30176 11.8672C1.29946 11.858 1.29721 11.848 1.29492 11.8389C1.29265 11.8298 1.28937 11.8206 1.28711 11.8115L1.25977 11.7021C1.25759 11.6934 1.25608 11.6845 1.25391 11.6758L1.24023 11.6211C1.23803 11.6123 1.23559 11.6035 1.2334 11.5947C1.23116 11.5858 1.22879 11.5763 1.22656 11.5674C1.22436 11.5586 1.22192 11.5498 1.21973 11.541C1.2175 11.5321 1.21511 11.5225 1.21289 11.5137C1.21071 11.5049 1.20823 11.496 1.20605 11.4873C1.20388 11.4786 1.20237 11.4696 1.2002 11.4609L1.17969 11.3818C1.17752 11.3731 1.176 11.3641 1.17383 11.3555L1.16016 11.3027C1.15805 11.2943 1.1564 11.2857 1.1543 11.2773C1.15214 11.2687 1.14961 11.2596 1.14746 11.251C1.14533 11.2425 1.14274 11.2341 1.14062 11.2256C1.13848 11.217 1.13691 11.2078 1.13477 11.1992C1.13265 11.1907 1.13004 11.1823 1.12793 11.1738C1.12583 11.1654 1.12417 11.1568 1.12207 11.1484C1.11997 11.14 1.11733 11.1314 1.11523 11.123C1.11316 11.1147 1.11145 11.1059 1.10938 11.0977C1.10729 11.0893 1.10461 11.0806 1.10254 11.0723C1.10047 11.064 1.09874 11.0551 1.09668 11.0469C1.09459 11.0385 1.09192 11.0298 1.08984 11.0215C1.08775 11.0131 1.08607 11.0044 1.08398 10.9961C1.08189 10.9877 1.07923 10.979 1.07715 10.9707C1.07512 10.9626 1.07331 10.9544 1.07129 10.9463C1.06921 10.938 1.06652 10.9292 1.06445 10.9209L1.05273 10.8721C1.05068 10.8638 1.04795 10.8549 1.0459 10.8467L1.02832 10.7734C1.02629 10.7653 1.0235 10.7571 1.02148 10.749L1.00977 10.7002C1.00781 10.6924 1.00585 10.6845 1.00391 10.6768C1.00191 10.6688 1.00004 10.6603 0.998047 10.6523C0.996095 10.6445 0.994133 10.6367 0.992188 10.6289C0.990198 10.621 0.98733 10.6124 0.985352 10.6045L0.938477 10.417C0.936624 10.4096 0.935443 10.4019 0.933594 10.3945C0.931681 10.3869 0.929639 10.3787 0.927734 10.3711C0.925859 10.3636 0.923742 10.3561 0.921875 10.3486C0.919975 10.341 0.917907 10.3328 0.916016 10.3252L0.904297 10.2803C0.902448 10.2729 0.901259 10.2652 0.899414 10.2578L0.881836 10.1904C0.880007 10.1831 0.878778 10.1753 0.876953 10.168C0.875152 10.1608 0.872885 10.1537 0.871094 10.1465C0.86926 10.1392 0.867059 10.1313 0.865234 10.124C0.863457 10.1169 0.862124 10.1096 0.860352 10.1025C0.858532 10.0953 0.856302 10.0873 0.854492 10.0801C0.852725 10.073 0.851372 10.0656 0.849609 10.0586C0.847815 10.0514 0.845534 10.0442 0.84375 10.0371C0.841972 10.03 0.84064 10.0227 0.838867 10.0156C0.837078 10.0085 0.834787 10.0013 0.833008 9.99414C0.831236 9.98704 0.829891 9.97972 0.828125 9.97266C0.826357 9.96559 0.824024 9.9582 0.822266 9.95117C0.820564 9.94436 0.819079 9.93745 0.817383 9.93066C0.815624 9.92364 0.813272 9.91617 0.811523 9.90918C0.809821 9.90237 0.808336 9.89546 0.806641 9.88867C0.804902 9.88171 0.803491 9.87412 0.801758 9.86719C0.800033 9.8603 0.797612 9.85353 0.795898 9.84668L0.78125 9.78516C0.779562 9.77842 0.777066 9.77135 0.775391 9.76465L0.765625 9.72363C0.763998 9.71713 0.762361 9.71058 0.760742 9.7041C0.759079 9.69744 0.757516 9.69022 0.755859 9.68359C0.754238 9.67711 0.752591 9.67052 0.750977 9.66406C0.749318 9.65745 0.746762 9.65014 0.745117 9.64355L0.720703 9.5459C0.719124 9.53956 0.718373 9.53267 0.716797 9.52637C0.715245 9.52017 0.713457 9.51398 0.711914 9.50781C0.710325 9.50146 0.708611 9.4946 0.707031 9.48828L0.697266 9.45117C0.695701 9.44491 0.693938 9.43786 0.692383 9.43164C0.690857 9.42554 0.689016 9.41915 0.6875 9.41309C0.685984 9.407 0.685106 9.40058 0.683594 9.39453C0.682065 9.38842 0.68023 9.38205 0.678711 9.37598C0.677234 9.37008 0.675294 9.36426 0.673828 9.3584C0.672333 9.3524 0.671412 9.34581 0.669922 9.33984C0.668407 9.33379 0.666544 9.32731 0.665039 9.32129C0.663562 9.31539 0.661622 9.30957 0.660156 9.30371C0.658664 9.29772 0.657738 9.29111 0.65625 9.28516C0.65478 9.27929 0.652826 9.27341 0.651367 9.26758C0.649915 9.26176 0.648907 9.25579 0.647461 9.25C0.646001 9.24417 0.644026 9.23821 0.642578 9.23242C0.64114 9.22666 0.640105 9.22057 0.638672 9.21484C0.637215 9.20903 0.635234 9.20304 0.633789 9.19727C0.632347 9.19149 0.631319 9.18543 0.629883 9.17969C0.628481 9.1741 0.626389 9.16864 0.625 9.16309C0.623575 9.15737 0.622512 9.15118 0.621094 9.14551C0.619717 9.14 0.618557 9.13439 0.617188 9.12891C0.615773 9.12326 0.613706 9.11693 0.612305 9.11133L0.604492 9.07812C0.603104 9.07259 0.600984 9.06702 0.599609 9.06152L0.591797 9.02832C0.590495 9.02311 0.589184 9.01787 0.587891 9.0127C0.586551 9.00733 0.585316 9.00142 0.583984 8.99609C0.58269 8.99092 0.581364 8.98561 0.580078 8.98047C0.578742 8.97514 0.576517 8.96915 0.575195 8.96387L0.555664 8.88574C0.554409 8.88069 0.553987 8.87513 0.552734 8.87012C0.551508 8.86522 0.550045 8.86034 0.548828 8.85547C0.547569 8.85043 0.546171 8.84484 0.544922 8.83984L0.533203 8.7959C0.532021 8.79115 0.531452 8.78596 0.530273 8.78125L0.518555 8.7373C0.517429 8.73279 0.516746 8.72812 0.515625 8.72363C0.514447 8.71893 0.512884 8.71365 0.511719 8.70898C0.510593 8.70447 0.50991 8.6998 0.508789 8.69531C0.507643 8.69074 0.506016 8.68617 0.504883 8.68164C0.503771 8.67718 0.50306 8.6724 0.501953 8.66797C0.500831 8.6635 0.499156 8.65873 0.498047 8.6543C0.49694 8.64985 0.496218 8.64503 0.495117 8.64062C0.493994 8.63615 0.49232 8.63139 0.491211 8.62695C0.490118 8.62256 0.489368 8.61763 0.488281 8.61328C0.487209 8.60902 0.485432 8.60481 0.484375 8.60059C0.483324 8.59637 0.482489 8.59207 0.481445 8.58789C0.480367 8.58356 0.479587 8.5785 0.478516 8.57422C0.477457 8.57001 0.475652 8.56569 0.474609 8.56152L0.46582 8.52344L0.462891 8.51172C0.461861 8.50762 0.459997 8.50308 0.458984 8.49902C0.458008 8.49512 0.457022 8.49117 0.456055 8.4873C0.455052 8.48329 0.454119 8.47858 0.453125 8.47461L0.441406 8.42773C0.440504 8.42414 0.439367 8.42056 0.438477 8.41699L0.435547 8.40527C0.434626 8.40155 0.434513 8.39723 0.433594 8.39355L0.421875 8.35059C0.421009 8.34709 0.420785 8.3433 0.419922 8.33984C0.419044 8.33634 0.417857 8.33256 0.416992 8.3291C0.416164 8.32581 0.414877 8.32259 0.414062 8.31934C0.413215 8.31591 0.412954 8.31197 0.412109 8.30859C0.411281 8.3053 0.409994 8.30208 0.40918 8.29883C0.408352 8.29548 0.408051 8.29138 0.407227 8.28809C0.406424 8.2849 0.405083 8.28147 0.404297 8.27832C0.403516 8.27517 0.40312 8.27166 0.402344 8.26855C0.401589 8.26557 0.400152 8.26272 0.399414 8.25977C0.398651 8.25669 0.398218 8.25303 0.397461 8.25C0.396671 8.24686 0.395304 8.24332 0.394531 8.24023C0.393807 8.23732 0.393297 8.23432 0.392578 8.23145C0.391808 8.22839 0.390401 8.22469 0.389648 8.22168L0.383789 8.19531C0.383058 8.19243 0.38157 8.18937 0.380859 8.18652C0.380168 8.18375 0.379589 8.18047 0.378906 8.17773C0.378255 8.17513 0.377595 8.17249 0.376953 8.16992C0.376265 8.16716 0.375679 8.16385 0.375 8.16113L0.363281 8.11426C0.362703 8.11196 0.361893 8.10968 0.361328 8.10742C0.360721 8.10499 0.35997 8.10199 0.359375 8.09961C0.358802 8.09733 0.357981 8.09501 0.357422 8.09277C0.356877 8.09055 0.356991 8.08812 0.356445 8.08594L0.350586 8.06543C0.350072 8.06333 0.350123 8.06065 0.349609 8.05859C0.349104 8.05661 0.348144 8.05468 0.347656 8.05273C0.347186 8.05082 0.347149 8.04875 0.34668 8.04688C0.346164 8.04483 0.345224 8.04203 0.344727 8.04004C0.344248 8.03816 0.343232 8.03601 0.342773 8.03418L0.34082 8.02246C0.340384 8.02078 0.339279 8.01923 0.338867 8.01758C0.338421 8.01576 0.338333 8.01349 0.337891 8.01172C0.337454 8.01004 0.336349 8.00848 0.335938 8.00684C0.335512 8.0051 0.335382 8.00266 0.334961 8.00098C0.334584 7.99945 0.334357 7.99758 0.333984 7.99609C0.333578 7.99454 0.332409 7.99272 0.332031 7.99121C0.33167 7.98974 0.331409 7.98775 0.331055 7.98633L0.330078 7.98242C0.329706 7.98091 0.329467 7.979 0.329102 7.97754C0.328776 7.97624 0.328442 7.9749 0.328125 7.97363C0.327773 7.9722 0.327491 7.97012 0.327148 7.96875L0.323242 7.95312C0.322986 7.95214 0.322506 7.95116 0.322266 7.9502C0.321976 7.94904 0.321564 7.94739 0.321289 7.94629L0.319336 7.94043V7.9375L0.316406 7.92871V7.92676L0.31543 7.92383V7.92188L0.314453 7.91992V7.91797L0.313477 7.91602V7.91406L0.3125 7.91309V7.91016L0.311523 7.90918V7.90625L0 6.66309H1.32324C1.35405 6.66275 1.40175 6.66158 1.46289 6.66016C1.58547 6.6573 1.76483 6.65223 1.98535 6.64062C2.42878 6.61729 3.03284 6.57077 3.67871 6.47852C4.32858 6.38568 4.99732 6.24956 5.5791 6.05566C6.17788 5.85604 6.59288 5.62383 6.82324 5.39355C6.82621 5.39059 6.83001 5.38773 6.83301 5.38477L6.87012 5.34766C6.87309 5.34469 6.87594 5.34089 6.87891 5.33789C6.88191 5.33489 6.88564 5.3321 6.88867 5.3291C6.8917 5.32607 6.89443 5.3224 6.89746 5.31934C6.90047 5.31632 6.90418 5.31356 6.90723 5.31055C6.91033 5.30745 6.91387 5.3039 6.91699 5.30078C6.92002 5.29775 6.92276 5.29407 6.92578 5.29102C6.9289 5.28789 6.93241 5.28439 6.93555 5.28125C6.93858 5.27822 6.94225 5.27549 6.94531 5.27246L7.04297 5.1748C7.04622 5.17155 7.04948 5.16735 7.05273 5.16406C7.05593 5.16087 7.0593 5.1575 7.0625 5.1543C7.06577 5.15102 7.06994 5.14781 7.07324 5.14453C7.07644 5.14134 7.0798 5.13797 7.08301 5.13477C7.0863 5.13147 7.08948 5.12735 7.09277 5.12402C7.09606 5.12074 7.1002 5.11755 7.10352 5.11426C7.10671 5.11106 7.11008 5.1077 7.11328 5.10449C7.11659 5.10118 7.11974 5.09709 7.12305 5.09375C7.12638 5.09042 7.13043 5.08731 7.13379 5.08398C7.13712 5.08066 7.14023 5.0766 7.14355 5.07324C7.14688 5.06992 7.15095 5.06679 7.1543 5.06348C7.15762 5.06015 7.16074 5.05609 7.16406 5.05273C7.1674 5.0494 7.17144 5.0463 7.1748 5.04297C7.17816 5.03961 7.18122 5.03561 7.18457 5.03223C7.18793 5.02887 7.19193 5.02581 7.19531 5.02246C7.19871 5.01906 7.20264 5.01514 7.20605 5.01172C7.20937 5.0084 7.21251 5.00432 7.21582 5.00098C7.21918 4.99762 7.22318 4.99456 7.22656 4.99121C7.22999 4.98778 7.23386 4.98391 7.2373 4.98047C7.24066 4.97711 7.24372 4.97311 7.24707 4.96973C7.25043 4.96637 7.25443 4.96331 7.25781 4.95996L7.29004 4.92773C7.2934 4.92438 7.29645 4.92037 7.2998 4.91699L7.39648 4.82031C7.40005 4.81675 7.40461 4.81314 7.4082 4.80957L7.44043 4.77734C7.44402 4.77375 7.44758 4.76925 7.45117 4.76562C7.45476 4.76204 7.45927 4.75847 7.46289 4.75488L7.48438 4.7334C7.48798 4.7298 7.49151 4.72531 7.49512 4.72168C7.49875 4.71805 7.50318 4.71457 7.50684 4.71094C7.51036 4.70742 7.51405 4.70372 7.51758 4.7002C7.52118 4.69659 7.52472 4.69211 7.52832 4.68848C7.53196 4.68484 7.53637 4.68137 7.54004 4.67773C7.5437 4.67407 7.54713 4.6697 7.55078 4.66602C7.55443 4.66236 7.55882 4.65892 7.5625 4.65527C7.56614 4.65163 7.5696 4.64722 7.57324 4.64355C7.57688 4.63992 7.5813 4.63645 7.58496 4.63281C7.5886 4.62917 7.59207 4.62476 7.5957 4.62109C7.59935 4.61745 7.60375 4.61399 7.60742 4.61035C7.61109 4.60669 7.61451 4.60232 7.61816 4.59863C7.62185 4.59495 7.62618 4.59157 7.62988 4.58789C7.63357 4.58421 7.63695 4.57988 7.64062 4.57617C7.64428 4.57252 7.64866 4.56908 7.65234 4.56543C7.65607 4.5617 7.66032 4.55745 7.66406 4.55371C7.66774 4.55004 7.67114 4.54569 7.6748 4.54199C7.67849 4.53831 7.68282 4.53493 7.68652 4.53125C7.69027 4.52751 7.69448 4.52329 7.69824 4.51953C7.70193 4.51585 7.70531 4.51152 7.70898 4.50781C7.71266 4.50413 7.717 4.50074 7.7207 4.49707L7.74414 4.47363C7.74783 4.46995 7.75121 4.46562 7.75488 4.46191C7.75857 4.45823 7.7629 4.45485 7.7666 4.45117L7.80176 4.41602C7.80544 4.41233 7.80882 4.408 7.8125 4.4043L7.84766 4.36914C7.85134 4.36545 7.85567 4.36207 7.85938 4.3584L7.97656 4.24121C7.98044 4.23733 7.9844 4.23242 7.98828 4.22852L8.01172 4.20508C8.01561 4.20119 8.0205 4.19725 8.02441 4.19336L8.05957 4.1582C8.06348 4.1543 8.06738 4.14944 8.07129 4.14551C8.07514 4.14166 8.07915 4.13764 8.08301 4.13379C8.08692 4.12988 8.09177 4.12598 8.0957 4.12207L8.11914 4.09863C8.12306 4.09471 8.12694 4.08989 8.13086 4.08594C8.13471 4.08209 8.13873 4.07807 8.14258 4.07422C8.14651 4.07029 8.15132 4.06643 8.15527 4.0625C8.15912 4.05865 8.16314 4.05463 8.16699 4.05078C8.17093 4.04684 8.17478 4.04205 8.17871 4.03809L8.19043 4.02637C8.19437 4.02242 8.19916 4.01859 8.20312 4.01465L8.21484 4.00293C8.21877 3.999 8.22264 3.99419 8.22656 3.99023C8.23051 3.98628 8.23528 3.98246 8.23926 3.97852L8.25098 3.9668C8.25492 3.96285 8.25875 3.95807 8.2627 3.9541C8.26666 3.95014 8.27141 3.94634 8.27539 3.94238C8.27924 3.93853 8.28326 3.93452 8.28711 3.93066C8.29105 3.92673 8.2949 3.92193 8.29883 3.91797C8.3028 3.914 8.30754 3.91021 8.31152 3.90625C8.31548 3.90229 8.31929 3.89753 8.32324 3.89355C8.32716 3.88964 8.332 3.88575 8.33594 3.88184C8.33979 3.87799 8.3438 3.87397 8.34766 3.87012C8.35163 3.86614 8.3554 3.86142 8.35938 3.85742C8.36335 3.85344 8.36807 3.84967 8.37207 3.8457L8.4082 3.80957C8.41217 3.8056 8.41596 3.80086 8.41992 3.79688C8.42391 3.79288 8.42861 3.78914 8.43262 3.78516C8.43661 3.78117 8.44036 3.77647 8.44434 3.77246C8.4483 3.76849 8.45304 3.7647 8.45703 3.76074C8.46098 3.75679 8.4648 3.75202 8.46875 3.74805C8.47269 3.74411 8.47749 3.74026 8.48145 3.73633C8.4853 3.73248 8.48931 3.72846 8.49316 3.72461C8.49711 3.72067 8.50095 3.71588 8.50488 3.71191C8.50884 3.70796 8.5136 3.70414 8.51758 3.7002C8.52155 3.69623 8.52534 3.69149 8.5293 3.6875C8.53328 3.68352 8.538 3.67975 8.54199 3.67578C8.54598 3.67179 8.54973 3.66709 8.55371 3.66309C8.55771 3.65909 8.56239 3.65535 8.56641 3.65137C8.57041 3.64736 8.57413 3.64269 8.57812 3.63867C8.58213 3.63466 8.5868 3.63095 8.59082 3.62695C8.59483 3.62295 8.59854 3.61828 8.60254 3.61426C8.60654 3.61026 8.61122 3.60653 8.61523 3.60254C8.61923 3.59854 8.62297 3.59386 8.62695 3.58984C8.63095 3.58585 8.63564 3.58211 8.63965 3.57812C8.64364 3.57413 8.64738 3.56944 8.65137 3.56543C8.65536 3.56144 8.66006 3.55769 8.66406 3.55371C8.66805 3.54972 8.6718 3.54502 8.67578 3.54102C8.67977 3.53703 8.68447 3.53328 8.68848 3.5293C8.69246 3.52531 8.69622 3.52061 8.7002 3.5166C8.70418 3.51261 8.70889 3.50886 8.71289 3.50488C8.71688 3.5009 8.72063 3.49619 8.72461 3.49219C8.7286 3.4882 8.7333 3.48444 8.7373 3.48047C8.74129 3.47648 8.74505 3.47178 8.74902 3.46777C8.75301 3.46379 8.75772 3.46003 8.76172 3.45605C8.7657 3.45207 8.76946 3.44736 8.77344 3.44336C8.77742 3.43938 8.78213 3.43561 8.78613 3.43164C8.79012 3.42766 8.79388 3.42294 8.79785 3.41895C8.80183 3.41496 8.80655 3.4112 8.81055 3.40723C8.81453 3.40325 8.8183 3.39853 8.82227 3.39453C8.82624 3.39055 8.83097 3.38678 8.83496 3.38281C8.83893 3.37884 8.84272 3.37411 8.84668 3.37012C8.85065 3.36615 8.85539 3.36236 8.85938 3.3584C8.86334 3.35443 8.86714 3.34968 8.87109 3.3457C8.87505 3.34174 8.87981 3.33793 8.88379 3.33398C8.88774 3.33003 8.89156 3.32526 8.89551 3.32129C8.89945 3.31734 8.90424 3.31351 8.9082 3.30957L8.94434 3.27344C8.94828 3.26949 8.95212 3.26471 8.95605 3.26074C8.96001 3.25678 8.96478 3.25297 8.96875 3.24902C8.97272 3.24505 8.97651 3.24031 8.98047 3.23633C8.98445 3.23234 8.98917 3.22858 8.99316 3.22461C8.99716 3.22061 9.0009 3.21592 9.00488 3.21191C9.00887 3.20792 9.01357 3.20417 9.01758 3.2002C9.02155 3.19622 9.02534 3.19149 9.0293 3.1875C9.03325 3.18355 9.03803 3.17972 9.04199 3.17578C9.04584 3.17193 9.04986 3.16791 9.05371 3.16406C9.05765 3.16012 9.0615 3.15532 9.06543 3.15137C9.0694 3.1474 9.07414 3.1436 9.07812 3.13965C9.08211 3.13566 9.08587 3.13095 9.08984 3.12695C9.09382 3.12298 9.09855 3.1192 9.10254 3.11523C9.10639 3.11138 9.11041 3.10737 9.11426 3.10352C9.11818 3.09959 9.12206 3.09476 9.12598 3.09082C9.12994 3.08686 9.1347 3.08305 9.13867 3.0791C9.14265 3.07513 9.14643 3.07039 9.15039 3.06641C9.15434 3.06246 9.15912 3.05862 9.16309 3.05469C9.16694 3.05084 9.17095 3.04682 9.1748 3.04297C9.17877 3.039 9.18257 3.03425 9.18652 3.03027C9.19049 3.02631 9.19524 3.02251 9.19922 3.01855C9.20307 3.0147 9.20709 3.01069 9.21094 3.00684C9.21489 3.00288 9.21871 2.99811 9.22266 2.99414C9.22661 2.99018 9.23138 2.98637 9.23535 2.98242C9.2392 2.97857 9.24322 2.97455 9.24707 2.9707C9.25102 2.96675 9.25485 2.96197 9.25879 2.95801C9.26272 2.95408 9.26754 2.95021 9.27148 2.94629L9.29492 2.92285C9.29884 2.91893 9.30273 2.91409 9.30664 2.91016C9.31058 2.90622 9.31538 2.90236 9.31934 2.89844L9.34277 2.875C9.3467 2.87108 9.35058 2.86624 9.35449 2.8623C9.35841 2.85838 9.36325 2.8545 9.36719 2.85059L9.40234 2.81543C9.40625 2.81152 9.41016 2.80666 9.41406 2.80273C9.41792 2.79888 9.42193 2.79486 9.42578 2.79102C9.42968 2.78712 9.43456 2.78319 9.43848 2.7793L9.49707 2.7207C9.50094 2.71683 9.50492 2.7119 9.50879 2.70801L9.59082 2.62598C9.59451 2.62229 9.59884 2.61891 9.60254 2.61523L9.66113 2.55664C9.66482 2.55295 9.6682 2.54862 9.67188 2.54492C9.67567 2.54112 9.6798 2.537 9.68359 2.5332C9.68728 2.52951 9.69161 2.52613 9.69531 2.52246L9.71875 2.49902C9.72244 2.49533 9.72582 2.491 9.72949 2.4873C9.73326 2.48353 9.73744 2.47936 9.74121 2.47559C9.7449 2.4719 9.74923 2.46851 9.75293 2.46484C9.75669 2.46108 9.76089 2.45689 9.76465 2.45312C9.76833 2.44944 9.77173 2.4451 9.77539 2.44141C9.77908 2.43772 9.78341 2.43433 9.78711 2.43066C9.79085 2.42692 9.79508 2.42269 9.79883 2.41895C9.8025 2.41528 9.80592 2.41091 9.80957 2.40723C9.81326 2.40354 9.81759 2.40016 9.82129 2.39648C9.82496 2.39281 9.82837 2.38845 9.83203 2.38477C9.83568 2.38112 9.84009 2.37765 9.84375 2.37402L9.87793 2.33984C9.88156 2.33621 9.88506 2.33177 9.88867 2.32812C9.89229 2.3245 9.89676 2.32099 9.90039 2.31738C9.90392 2.31385 9.90761 2.31016 9.91113 2.30664C9.91475 2.30302 9.91827 2.29855 9.92188 2.29492C9.92551 2.29128 9.92994 2.2878 9.93359 2.28418C9.93725 2.28052 9.9407 2.27613 9.94434 2.27246C9.94797 2.26883 9.95241 2.26534 9.95605 2.26172C9.95958 2.25819 9.96327 2.2545 9.9668 2.25098C9.97043 2.24734 9.97392 2.2429 9.97754 2.23926C9.98116 2.23564 9.98562 2.23212 9.98926 2.22852L10.0107 2.20703C10.0143 2.20344 10.0179 2.19892 10.0215 2.19531C10.0251 2.19172 10.0296 2.18815 10.0332 2.18457L10.0654 2.15234C10.069 2.14878 10.0726 2.14421 10.0762 2.14062L10.1514 2.06543C10.1547 2.06206 10.1587 2.05901 10.1621 2.05566L10.1943 2.02344C10.1977 2.02007 10.2008 2.01607 10.2041 2.0127C10.2076 2.00924 10.2114 2.00541 10.2148 2.00195C10.2182 1.99859 10.2222 1.99553 10.2256 1.99219C10.229 1.98875 10.2329 1.98488 10.2363 1.98145C10.2397 1.97808 10.2428 1.97408 10.2461 1.9707C10.2494 1.96736 10.2535 1.96426 10.2568 1.96094C10.2602 1.95753 10.2642 1.95361 10.2676 1.9502C10.2709 1.94684 10.274 1.94282 10.2773 1.93945C10.2807 1.93609 10.2847 1.93303 10.2881 1.92969C10.2914 1.92634 10.2945 1.9223 10.2979 1.91895C10.3012 1.91561 10.3052 1.91249 10.3086 1.90918C10.3119 1.90585 10.3151 1.90178 10.3184 1.89844C10.3217 1.89511 10.3258 1.89198 10.3291 1.88867C10.3324 1.88533 10.3355 1.88128 10.3389 1.87793C10.3422 1.8746 10.3463 1.87148 10.3496 1.86816C10.3528 1.86496 10.3562 1.86159 10.3594 1.8584C10.3627 1.85512 10.3659 1.85095 10.3691 1.84766C10.3724 1.84435 10.3766 1.84118 10.3799 1.83789C10.3831 1.83469 10.3865 1.83132 10.3896 1.82812C10.3929 1.82484 10.3961 1.82068 10.3994 1.81738C10.4026 1.81418 10.406 1.81081 10.4092 1.80762C10.4124 1.80435 10.4166 1.8011 10.4199 1.79785L10.5273 1.69043C10.5304 1.68739 10.5331 1.68371 10.5361 1.68066C10.5393 1.67754 10.5428 1.67402 10.5459 1.6709C10.5489 1.66786 10.5526 1.66512 10.5557 1.66211C10.5588 1.65901 10.5623 1.65545 10.5654 1.65234C10.5684 1.64934 10.5712 1.64559 10.5742 1.64258C10.5773 1.63954 10.5809 1.6368 10.584 1.63379C10.587 1.63075 10.5898 1.62707 10.5928 1.62402C10.5958 1.62101 10.5995 1.61823 10.6025 1.61523C10.6055 1.61223 10.6084 1.60848 10.6113 1.60547C10.6143 1.60247 10.6181 1.59965 10.6211 1.59668C10.6241 1.59368 10.6269 1.58993 10.6299 1.58691C10.6329 1.5839 10.6366 1.58111 10.6396 1.57812C10.6426 1.57514 10.6455 1.57136 10.6484 1.56836C10.6513 1.56548 10.6544 1.56244 10.6572 1.55957C10.6602 1.55659 10.664 1.55374 10.667 1.55078C10.6699 1.5479 10.6729 1.54486 10.6758 1.54199C10.6787 1.53904 10.6816 1.53519 10.6846 1.53223C10.6874 1.52935 10.6905 1.52631 10.6934 1.52344C10.6963 1.52051 10.7002 1.51756 10.7031 1.51465L10.7559 1.46191C10.7586 1.4592 10.761 1.45585 10.7637 1.45312L10.7812 1.43555C10.784 1.43283 10.7873 1.43042 10.79 1.42773C10.7928 1.42495 10.796 1.42173 10.7988 1.41895C10.8015 1.41624 10.804 1.41287 10.8066 1.41016C10.8094 1.40744 10.8127 1.40503 10.8154 1.40234C10.8181 1.39966 10.8206 1.39625 10.8232 1.39355C10.8259 1.3909 10.8294 1.38838 10.832 1.38574L10.8486 1.36914C10.8513 1.36649 10.8538 1.36302 10.8564 1.36035C10.8591 1.35768 10.8626 1.35518 10.8652 1.35254C10.8679 1.34987 10.8704 1.34643 10.873 1.34375C10.8756 1.34119 10.8783 1.33848 10.8809 1.33594C10.8835 1.3333 10.887 1.33074 10.8896 1.32812C10.8922 1.32557 10.8949 1.32285 10.8975 1.32031C10.9001 1.3177 10.9027 1.31415 10.9053 1.31152L10.9521 1.26465C10.9545 1.26226 10.9576 1.26017 10.96 1.25781L10.9756 1.24219C10.978 1.23979 10.9801 1.23678 10.9824 1.23438C10.9848 1.23202 10.9879 1.22986 10.9902 1.22754C10.9927 1.2251 10.9956 1.22217 10.998 1.21973C11.0004 1.21733 11.0025 1.21431 11.0049 1.21191C11.0073 1.20953 11.0103 1.20743 11.0127 1.20508C11.0151 1.20271 11.0172 1.19964 11.0195 1.19727C11.0219 1.1949 11.025 1.19276 11.0273 1.19043C11.0297 1.18807 11.0318 1.18499 11.0342 1.18262C11.0365 1.18029 11.0396 1.17808 11.042 1.17578C11.0442 1.17355 11.0466 1.17116 11.0488 1.16895C11.0511 1.16663 11.0534 1.16347 11.0557 1.16113C11.0579 1.1589 11.0603 1.15651 11.0625 1.1543C11.0648 1.15201 11.068 1.14972 11.0703 1.14746L11.1113 1.10645C11.1134 1.10438 11.1152 1.10169 11.1172 1.09961C11.1193 1.09745 11.1219 1.09493 11.124 1.09277C11.1261 1.09071 11.1288 1.08894 11.1309 1.08691C11.133 1.08479 11.1356 1.08221 11.1377 1.08008C11.1398 1.07802 11.1415 1.07531 11.1436 1.07324C11.1456 1.07117 11.1483 1.06941 11.1504 1.06738C11.1524 1.06533 11.1542 1.06261 11.1562 1.06055C11.1583 1.0585 11.161 1.05669 11.1631 1.05469C11.1651 1.05264 11.1669 1.04991 11.1689 1.04785C11.171 1.04583 11.1737 1.04398 11.1758 1.04199C11.1777 1.04009 11.1798 1.03802 11.1816 1.03613C11.1836 1.03414 11.1855 1.03131 11.1875 1.0293C11.1895 1.02733 11.1923 1.02538 11.1943 1.02344L11.2354 0.982422C11.2371 0.980679 11.2385 0.978319 11.2402 0.976562C11.2421 0.974738 11.2443 0.972525 11.2461 0.970703C11.2478 0.968961 11.2502 0.967518 11.252 0.96582C11.2537 0.964092 11.2551 0.961705 11.2568 0.959961C11.2585 0.95828 11.261 0.956725 11.2627 0.955078L11.2842 0.933594C11.2859 0.93191 11.2874 0.92944 11.2891 0.927734C11.2906 0.926154 11.2924 0.924416 11.2939 0.922852C11.2956 0.921206 11.2981 0.919585 11.2998 0.917969L11.3291 0.888672C11.3305 0.887254 11.3316 0.885226 11.333 0.883789C11.3345 0.882291 11.3364 0.880404 11.3379 0.878906C11.3393 0.87749 11.3413 0.876365 11.3428 0.875L11.3604 0.857422C11.3617 0.856088 11.363 0.85391 11.3643 0.852539C11.3656 0.851175 11.3677 0.849955 11.3691 0.848633C11.3704 0.847378 11.3718 0.845966 11.373 0.844727C11.3744 0.843398 11.3757 0.84121 11.377 0.839844C11.3782 0.838589 11.3796 0.837176 11.3809 0.835938C11.3821 0.834651 11.3844 0.833293 11.3857 0.832031L11.3936 0.824219C11.3946 0.823126 11.3954 0.821433 11.3965 0.820312L11.4043 0.8125C11.4054 0.81141 11.4071 0.8106 11.4082 0.80957C11.4094 0.80842 11.411 0.806823 11.4121 0.805664C11.4132 0.804619 11.414 0.802843 11.415 0.801758C11.4161 0.800701 11.4179 0.799832 11.4189 0.798828C11.42 0.797771 11.4209 0.796015 11.4219 0.794922C11.4229 0.793893 11.4247 0.792975 11.4258 0.791992C11.4267 0.791064 11.4278 0.789977 11.4287 0.789062C11.4297 0.788032 11.4307 0.78623 11.4316 0.785156C11.4326 0.78416 11.4345 0.783185 11.4355 0.782227L11.4531 0.764648C11.4539 0.763879 11.4544 0.762528 11.4551 0.761719C11.4559 0.760877 11.4572 0.759642 11.458 0.758789C11.4588 0.758036 11.4601 0.757515 11.4609 0.756836C11.4617 0.756065 11.4622 0.754715 11.4629 0.753906C11.4636 0.753164 11.465 0.752624 11.4658 0.751953C11.4666 0.751212 11.4671 0.749813 11.4678 0.749023C11.4685 0.748292 11.4699 0.747733 11.4707 0.74707L11.4727 0.745117L11.4746 0.742188L11.4775 0.740234L11.4873 0.730469L11.4883 0.728516L11.4902 0.727539L11.4922 0.725586L11.4932 0.723633L11.4951 0.722656L11.4961 0.720703L11.498 0.719727L11.499 0.71875L11.5 0.716797L11.501 0.71582L11.5029 0.714844L11.5049 0.712891V0.711914L11.5059 0.710938H11.5068L11.5078 0.709961V0.708984H11.5088V0.708008H11.5098L12.2178 0L12.9248 0.707031ZM12.2129 2.83301L12.1953 2.85059C12.1926 2.85327 12.1892 2.85569 12.1865 2.8584C12.1838 2.86112 12.1814 2.86447 12.1787 2.86719L11.7637 3.28223C11.7603 3.28554 11.7563 3.28866 11.7529 3.29199C11.7496 3.29535 11.7465 3.29939 11.7432 3.30273L11.7021 3.34375C11.6988 3.34709 11.6948 3.35015 11.6914 3.35352C11.6881 3.35688 11.685 3.3609 11.6816 3.36426L11.5547 3.49121C11.5513 3.49455 11.5473 3.49761 11.5439 3.50098L11.5225 3.52246C11.5189 3.52602 11.5153 3.53064 11.5117 3.53418L11.4473 3.59863C11.4437 3.60222 11.4391 3.60578 11.4355 3.60938C11.432 3.61298 11.4284 3.6175 11.4248 3.62109L11.4033 3.64258C11.3997 3.64618 11.3952 3.6497 11.3916 3.65332C11.388 3.65697 11.3845 3.66141 11.3809 3.66504L11.2012 3.84473C11.1975 3.8484 11.1931 3.85178 11.1895 3.85547C11.1858 3.85916 11.1824 3.8635 11.1787 3.86719L10.7812 4.26465C10.7773 4.26856 10.7725 4.27245 10.7686 4.27637C10.7646 4.28031 10.7608 4.28514 10.7568 4.28906L10.6494 4.39648C10.6454 4.40043 10.6407 4.40425 10.6367 4.4082C10.6328 4.41217 10.629 4.41694 10.625 4.4209C10.6211 4.42475 10.6171 4.42877 10.6133 4.43262C10.6093 4.43657 10.6046 4.44037 10.6006 4.44434C10.5966 4.44832 10.5928 4.45307 10.5889 4.45703L10.5166 4.5293C10.5126 4.53326 10.5079 4.53704 10.5039 4.54102C10.4999 4.54501 10.4962 4.54973 10.4922 4.55371L10.4316 4.61426C10.4276 4.61824 10.4229 4.62198 10.4189 4.62598C10.415 4.62999 10.4112 4.63467 10.4072 4.63867L10.0293 5.0166C10.0253 5.02059 10.0206 5.02432 10.0166 5.02832C10.0126 5.03234 10.0089 5.03701 10.0049 5.04102C10.0009 5.04501 9.99619 5.04873 9.99219 5.05273C9.98819 5.05675 9.98447 5.06143 9.98047 5.06543L9.78613 5.25977C9.78214 5.26374 9.77742 5.26751 9.77344 5.27148C9.76947 5.27548 9.7657 5.2802 9.76172 5.28418L9.68945 5.35645C9.68547 5.3604 9.68072 5.3642 9.67676 5.36816C9.67282 5.37213 9.66899 5.37691 9.66504 5.38086L9.50977 5.53613C9.50583 5.54004 9.50098 5.54394 9.49707 5.54785C9.49317 5.55178 9.48925 5.55664 9.48535 5.56055L9.42676 5.61914C9.42285 5.62302 9.41794 5.62698 9.41406 5.63086C9.41018 5.63477 9.40622 5.63967 9.40234 5.64355L9.25 5.7959C9.2463 5.79957 9.24196 5.80296 9.23828 5.80664C9.2346 5.81035 9.23123 5.81467 9.22754 5.81836L9.18066 5.86523C9.17696 5.86891 9.17263 5.87229 9.16895 5.87598C9.16527 5.87968 9.16189 5.88401 9.1582 5.8877L9.13477 5.91113C9.13107 5.9148 9.12673 5.9182 9.12305 5.92188C9.11937 5.92558 9.11599 5.92991 9.1123 5.93359L9.10059 5.94531C9.09688 5.94899 9.09255 5.95237 9.08887 5.95605C9.0852 5.95975 9.0818 5.9641 9.07812 5.96777L8.81152 6.23438C8.80794 6.23793 8.80336 6.24157 8.7998 6.24512C8.79625 6.2487 8.79261 6.25329 8.78906 6.25684L8.73535 6.31055C8.73197 6.3139 8.72797 6.31695 8.72461 6.32031C8.72126 6.32369 8.7182 6.3277 8.71484 6.33105L8.67188 6.37402C8.66849 6.37737 8.66449 6.38043 8.66113 6.38379C8.65778 6.38717 8.65473 6.39117 8.65137 6.39453L8.60938 6.43652C8.60599 6.43987 8.60199 6.44293 8.59863 6.44629C8.59528 6.44967 8.59223 6.45367 8.58887 6.45703L8.54785 6.49805C8.54449 6.50138 8.54044 6.50448 8.53711 6.50781C8.5338 6.51115 8.53066 6.51524 8.52734 6.51855L8.35938 6.68652C8.35632 6.68955 8.35264 6.69228 8.34961 6.69531C8.34659 6.69836 8.34384 6.70205 8.34082 6.70508L8.2373 6.80859C7.68656 7.35907 6.92983 7.71349 6.21094 7.95312C5.4749 8.19841 4.67865 8.3556 3.96191 8.45801C3.44737 8.53151 2.96014 8.57725 2.54785 8.60742L2.54883 8.60938C2.55022 8.61494 2.55134 8.62134 2.55273 8.62695C2.5541 8.63242 2.55527 8.63805 2.55664 8.64355C2.55803 8.64911 2.56012 8.65457 2.56152 8.66016C2.56294 8.66583 2.564 8.67202 2.56543 8.67773C2.56682 8.68329 2.56891 8.68875 2.57031 8.69434L2.57812 8.72949C2.57957 8.73528 2.58155 8.74124 2.58301 8.74707C2.58445 8.75283 2.58547 8.75885 2.58691 8.76465C2.58836 8.77043 2.59034 8.77641 2.5918 8.78223C2.59328 8.78814 2.59519 8.79483 2.59668 8.80078C2.59813 8.80657 2.59913 8.81254 2.60059 8.81836C2.60205 8.82421 2.604 8.83006 2.60547 8.83594C2.60696 8.84189 2.60788 8.8485 2.60938 8.85449L2.62402 8.91016C2.62552 8.91612 2.62643 8.92271 2.62793 8.92871L2.64258 8.98438C2.64415 8.99066 2.64588 8.99758 2.64746 9.00391C2.64898 9.01 2.64984 9.01634 2.65137 9.02246C2.65296 9.02881 2.65465 9.0356 2.65625 9.04199C2.65779 9.04816 2.65958 9.05435 2.66113 9.06055L2.68066 9.13867C2.6823 9.14522 2.6839 9.15259 2.68555 9.15918L2.69043 9.17871C2.69207 9.18526 2.69464 9.19166 2.69629 9.19824C2.69795 9.20489 2.6995 9.21207 2.70117 9.21875L2.70605 9.23828L2.7207 9.2998C2.7224 9.30661 2.72485 9.31348 2.72656 9.32031L2.73633 9.36133C2.73805 9.36823 2.74045 9.37588 2.74219 9.38281L2.75195 9.42383C2.7537 9.43082 2.75605 9.43829 2.75781 9.44531C2.75956 9.45231 2.76094 9.45977 2.7627 9.4668C2.76441 9.47366 2.76683 9.48042 2.76855 9.4873C2.7703 9.49429 2.77168 9.50177 2.77344 9.50879C2.7752 9.51586 2.77752 9.52317 2.7793 9.53027C2.78106 9.53732 2.78241 9.54468 2.78418 9.55176C2.78594 9.55882 2.78826 9.56615 2.79004 9.57324C2.79184 9.58045 2.79311 9.58846 2.79492 9.5957C2.79671 9.60287 2.79898 9.60999 2.80078 9.61719C2.8026 9.62446 2.80384 9.63235 2.80566 9.63965C2.80746 9.64682 2.80972 9.65394 2.81152 9.66113C2.81336 9.66846 2.81554 9.67623 2.81738 9.68359C2.81916 9.69068 2.82049 9.69796 2.82227 9.70508L2.83398 9.75C2.83583 9.7574 2.83701 9.76503 2.83887 9.77246L2.85059 9.81738C2.85247 9.82492 2.85455 9.83325 2.85645 9.84082L2.86816 9.88574C2.87007 9.89337 2.87114 9.90152 2.87305 9.90918C2.87492 9.91665 2.87703 9.92414 2.87891 9.93164L2.91992 10.0957C2.92189 10.1036 2.9238 10.1122 2.92578 10.1201L2.93164 10.1436C2.93363 10.1515 2.93648 10.16 2.93848 10.168C2.94042 10.1757 2.94238 10.1836 2.94434 10.1914L2.95605 10.2402L2.96191 10.2637C2.96392 10.2717 2.96673 10.28 2.96875 10.2881L2.98047 10.3369C2.98251 10.3451 2.98428 10.3541 2.98633 10.3623C2.98835 10.3704 2.99114 10.3786 2.99316 10.3867C2.99519 10.3948 2.997 10.403 2.99902 10.4111C3.00108 10.4194 3.00282 10.4283 3.00488 10.4365C3.00692 10.4447 3.00967 10.4528 3.01172 10.4609C3.01379 10.4692 3.0155 10.478 3.01758 10.4863C3.01962 10.4945 3.02236 10.5026 3.02441 10.5107L3.03613 10.5615C3.03823 10.5699 3.04086 10.5785 3.04297 10.5869C3.04506 10.5953 3.04673 10.6039 3.04883 10.6123C3.05094 10.6207 3.05355 10.6292 3.05566 10.6377C3.05776 10.6461 3.05942 10.6547 3.06152 10.6631C3.06363 10.6715 3.06625 10.68 3.06836 10.6885C3.07049 10.697 3.07305 10.7063 3.0752 10.7148C3.07729 10.7232 3.07895 10.7318 3.08105 10.7402C3.0832 10.7488 3.08574 10.758 3.08789 10.7666C3.08999 10.775 3.09165 10.7836 3.09375 10.792C3.09591 10.8006 3.09842 10.8097 3.10059 10.8184C3.1027 10.8268 3.1053 10.8353 3.10742 10.8438C3.10959 10.8524 3.11209 10.8614 3.11426 10.8701C3.11642 10.8788 3.11795 10.8878 3.12012 10.8965L3.13379 10.9492C3.13596 10.9579 3.13747 10.9669 3.13965 10.9756C3.14182 10.9843 3.14431 10.9933 3.14648 11.002L3.15332 11.0293L3.16699 11.082L3.17383 11.1094C3.17602 11.1182 3.17846 11.1269 3.18066 11.1357C3.18289 11.1446 3.1843 11.1542 3.18652 11.1631L3.2002 11.2178C3.20239 11.2266 3.20483 11.2353 3.20703 11.2441L3.22754 11.3262C3.22982 11.3353 3.23209 11.3453 3.23438 11.3545L3.24805 11.4092C3.25035 11.4184 3.25355 11.4283 3.25586 11.4375C3.25813 11.4466 3.26042 11.4558 3.2627 11.4648C3.265 11.4741 3.26722 11.4839 3.26953 11.4932C3.2718 11.5022 3.27409 11.5114 3.27637 11.5205L3.29004 11.5771C3.29233 11.5863 3.29555 11.5953 3.29785 11.6045L3.31836 11.6895C3.32071 11.6989 3.32381 11.7084 3.32617 11.7178C3.32851 11.7271 3.33066 11.7367 3.33301 11.7461C3.33538 11.7556 3.33747 11.7659 3.33984 11.7754C3.34219 11.7848 3.34433 11.7943 3.34668 11.8037C3.34905 11.8132 3.35212 11.8225 3.35449 11.832C3.35688 11.8416 3.35894 11.8518 3.36133 11.8613C3.36368 11.8707 3.36581 11.8802 3.36816 11.8896C3.37056 11.8992 3.37357 11.9093 3.37598 11.9189C3.37832 11.9283 3.38046 11.9379 3.38281 11.9473C3.38522 11.9569 3.38821 11.9669 3.39062 11.9766C3.39304 11.9862 3.39504 11.9962 3.39746 12.0059C3.39987 12.0155 3.40285 12.0255 3.40527 12.0352C3.40767 12.0447 3.40971 12.0549 3.41211 12.0645C3.41451 12.0741 3.41751 12.0841 3.41992 12.0938C3.42232 12.1033 3.42436 12.1135 3.42676 12.123C3.42917 12.1327 3.43215 12.1427 3.43457 12.1523C3.43698 12.162 3.43899 12.172 3.44141 12.1816C3.44385 12.1914 3.44677 12.2012 3.44922 12.2109C3.45164 12.2206 3.45363 12.2305 3.45605 12.2402C3.45852 12.2501 3.4614 12.2606 3.46387 12.2705C3.46629 12.2802 3.46828 12.2901 3.4707 12.2998C3.47318 12.3097 3.47604 12.3202 3.47852 12.3301C3.48096 12.3399 3.48388 12.3496 3.48633 12.3594C3.48881 12.3693 3.49068 12.3797 3.49316 12.3896C3.49561 12.3994 3.49853 12.4092 3.50098 12.4189C3.50347 12.4289 3.50629 12.4392 3.50879 12.4492C3.51129 12.4592 3.51312 12.4695 3.51562 12.4795L3.53906 12.5703C3.54155 12.5803 3.54341 12.5906 3.5459 12.6006L3.57715 12.7217C3.57969 12.7319 3.58144 12.7427 3.58398 12.7529C3.5865 12.763 3.58927 12.7731 3.5918 12.7832C3.59435 12.7934 3.59705 12.8042 3.59961 12.8145C3.60213 12.8245 3.6049 12.8346 3.60742 12.8447L3.61523 12.876C3.61775 12.8861 3.62052 12.8961 3.62305 12.9062L3.64648 13C3.64901 13.0101 3.65177 13.0202 3.6543 13.0303L3.68555 13.1553C3.68816 13.1657 3.69075 13.177 3.69336 13.1875L3.7168 13.2812C3.71942 13.2918 3.72198 13.303 3.72461 13.3135C3.72721 13.3239 3.72982 13.3343 3.73242 13.3447C3.73506 13.3553 3.73759 13.3664 3.74023 13.377C3.74283 13.3873 3.74545 13.3978 3.74805 13.4082C3.75069 13.4188 3.75321 13.4298 3.75586 13.4404C3.75848 13.4509 3.76202 13.4612 3.76465 13.4717L3.78027 13.5361C3.78287 13.5465 3.78548 13.557 3.78809 13.5674L3.80371 13.6318C3.80638 13.6425 3.80983 13.6534 3.8125 13.6641L3.82812 13.7285C3.8308 13.7392 3.83423 13.75 3.83691 13.7607C3.83958 13.7714 3.84206 13.7823 3.84473 13.793C3.84742 13.8037 3.84984 13.8154 3.85254 13.8262C3.85521 13.8369 3.85768 13.8477 3.86035 13.8584C3.86304 13.8692 3.86644 13.8798 3.86914 13.8906C3.87181 13.9013 3.87428 13.9122 3.87695 13.9229C3.87966 13.9337 3.88205 13.9452 3.88477 13.9561C3.88746 13.9668 3.89086 13.9775 3.89355 13.9883C3.89627 13.9992 3.89865 14.0106 3.90137 14.0215C3.90406 14.0323 3.90746 14.0429 3.91016 14.0537L3.92578 14.1201C3.92847 14.1309 3.93187 14.1416 3.93457 14.1523C3.93731 14.1633 3.93964 14.1746 3.94238 14.1855C3.94512 14.1965 3.94843 14.2078 3.95117 14.2188C3.95385 14.2294 3.95631 14.2403 3.95898 14.251C3.96172 14.2619 3.96504 14.2732 3.96777 14.2842L3.9834 14.3506C3.98615 14.3616 3.98944 14.3728 3.99219 14.3838C3.99493 14.3947 3.99726 14.406 4 14.417L4.01758 14.4834C4.02035 14.4945 4.02261 14.5065 4.02539 14.5176C4.02814 14.5286 4.03143 14.5398 4.03418 14.5508C4.03693 14.5618 4.03924 14.573 4.04199 14.584C4.04475 14.595 4.04801 14.6061 4.05078 14.6172C4.05357 14.6283 4.0558 14.6402 4.05859 14.6514C4.06136 14.6624 4.06461 14.6735 4.06738 14.6846C4.07018 14.6958 4.07337 14.7076 4.07617 14.7188C4.07892 14.7298 4.08123 14.7409 4.08398 14.752C4.08675 14.763 4.09 14.7741 4.09277 14.7852C4.09557 14.7963 4.09779 14.8081 4.10059 14.8193C4.10339 14.8306 4.10656 14.8423 4.10938 14.8535C4.11215 14.8646 4.11539 14.8756 4.11816 14.8867C4.12098 14.898 4.12316 14.9096 4.12598 14.9209C4.1288 14.9322 4.13194 14.9438 4.13477 14.9551C4.13754 14.9662 4.14078 14.9772 4.14355 14.9883C4.14636 14.9995 4.14856 15.0112 4.15137 15.0225L4.17773 15.125C4.18055 15.1363 4.18273 15.1479 4.18555 15.1592L4.21191 15.2617C4.21474 15.273 4.2169 15.2846 4.21973 15.2959L4.24609 15.3984C4.24896 15.4099 4.25202 15.4221 4.25488 15.4336C4.25771 15.4449 4.25987 15.4564 4.2627 15.4678C4.26554 15.4791 4.26864 15.4906 4.27148 15.502C4.27436 15.5134 4.2774 15.5256 4.28027 15.5371L4.29785 15.6055C4.30073 15.617 4.30376 15.6291 4.30664 15.6406C4.30949 15.652 4.31258 15.6634 4.31543 15.6748C4.31831 15.6863 4.32036 15.6984 4.32324 15.71C4.32609 15.7213 4.32918 15.7327 4.33203 15.7441L4.34961 15.8145C4.35246 15.8258 4.35555 15.8372 4.3584 15.8486L4.37598 15.9189C4.37882 15.9303 4.38192 15.9417 4.38477 15.9531L4.5166 16.4805C4.51954 16.4922 4.52245 16.5048 4.52539 16.5166L4.55176 16.6221C4.55471 16.6339 4.55759 16.6464 4.56055 16.6582L4.57812 16.7285C4.58108 16.7403 4.58396 16.7528 4.58691 16.7646C4.58984 16.7763 4.59278 16.7881 4.5957 16.7998C4.59866 16.8116 4.6025 16.8241 4.60547 16.8359L4.61426 16.8711C4.61722 16.883 4.62008 16.8954 4.62305 16.9072C4.62597 16.9189 4.62891 16.9307 4.63184 16.9424C4.6348 16.9543 4.63766 16.9666 4.64062 16.9785L4.64941 17.0137C4.65239 17.0256 4.65523 17.0379 4.6582 17.0498C4.66115 17.0616 4.66502 17.0732 4.66797 17.085L4.68555 17.1572C4.68847 17.1689 4.69141 17.1807 4.69434 17.1924L4.71191 17.2646C4.7149 17.2766 4.71869 17.2888 4.72168 17.3008L4.73047 17.3359L4.75684 17.4443C4.75982 17.4563 4.76361 17.4685 4.7666 17.4805C4.76956 17.4923 4.77243 17.5048 4.77539 17.5166C4.77831 17.5283 4.78125 17.5401 4.78418 17.5518L4.80176 17.624C4.80475 17.636 4.80852 17.6482 4.81152 17.6602L4.83789 17.7686C4.8409 17.7806 4.84465 17.7927 4.84766 17.8047L4.87402 17.9131C4.87702 17.9251 4.88079 17.9372 4.88379 17.9492L4.90137 18.0215C4.90438 18.0335 4.90811 18.0465 4.91113 18.0586L4.9375 18.167C4.94051 18.179 4.94425 18.1911 4.94727 18.2031C4.95026 18.2151 4.95306 18.2273 4.95605 18.2393C4.95908 18.2513 4.96182 18.2643 4.96484 18.2764C4.96784 18.2883 4.97161 18.3005 4.97461 18.3125L4.99219 18.3848C4.99519 18.3968 4.99895 18.4089 5.00195 18.4209C5.00498 18.433 5.00771 18.4459 5.01074 18.458C5.01374 18.47 5.01653 18.4821 5.01953 18.4941C5.02255 18.5062 5.02628 18.5182 5.0293 18.5303C5.03233 18.5424 5.03506 18.5553 5.03809 18.5674L5.05566 18.6396C5.0587 18.6518 5.06239 18.6646 5.06543 18.6768L5.08301 18.749C5.08604 18.7612 5.08974 18.774 5.09277 18.7861C5.09577 18.7981 5.09856 18.8103 5.10156 18.8223C5.10458 18.8343 5.1083 18.8463 5.11133 18.8584C5.11437 18.8705 5.11708 18.8834 5.12012 18.8955C5.12312 18.9075 5.12591 18.9196 5.12891 18.9316C5.13192 18.9437 5.13566 18.9557 5.13867 18.9678C5.14171 18.9799 5.14442 18.9927 5.14746 19.0049C5.15046 19.0169 5.15325 19.029 5.15625 19.041C5.15929 19.0532 5.16297 19.066 5.16602 19.0781C5.16902 19.0901 5.1718 19.1022 5.1748 19.1143C5.17785 19.1264 5.18055 19.1392 5.18359 19.1514C5.18661 19.1634 5.19034 19.1754 5.19336 19.1875C5.19636 19.1995 5.19915 19.2116 5.20215 19.2236C5.20519 19.2358 5.2079 19.2486 5.21094 19.2607C5.21396 19.2728 5.21768 19.2848 5.2207 19.2969C5.22375 19.309 5.22645 19.3218 5.22949 19.334C5.23251 19.3461 5.23623 19.358 5.23926 19.3701C5.2423 19.3823 5.245 19.395 5.24805 19.4072C5.25105 19.4192 5.25383 19.4314 5.25684 19.4434C5.25988 19.4555 5.26355 19.4683 5.2666 19.4805C5.2696 19.4925 5.27239 19.5046 5.27539 19.5166C5.27844 19.5288 5.28114 19.5415 5.28418 19.5537C5.2872 19.5658 5.29092 19.5778 5.29395 19.5898C5.29699 19.602 5.29969 19.6148 5.30273 19.627C5.30574 19.639 5.30852 19.6511 5.31152 19.6631C5.31457 19.6753 5.31824 19.688 5.32129 19.7002C5.32429 19.7122 5.32708 19.7243 5.33008 19.7363C5.33312 19.7485 5.3368 19.7612 5.33984 19.7734C5.34285 19.7854 5.34563 19.7976 5.34863 19.8096C5.35168 19.8218 5.35438 19.8345 5.35742 19.8467C5.36044 19.8588 5.36417 19.8707 5.36719 19.8828C5.37023 19.895 5.37293 19.9077 5.37598 19.9199C6.09066 22.7782 7.88868 24.9583 9.56152 26.4453C10.3932 27.1846 11.1801 27.7389 11.7559 28.1074C11.8901 28.1933 12.0125 28.2697 12.1211 28.335C12.2513 28.2296 12.4055 28.1074 12.5752 27.9648C13.1691 27.466 13.9766 26.7529 14.8301 25.8994C16.5673 24.1621 18.3765 21.9563 19.0801 19.8457C19.8453 17.55 20.6184 14.4645 21.2031 11.9307C21.4944 10.6685 21.7373 9.55119 21.9072 8.75C21.9172 8.70286 21.9261 8.65624 21.9355 8.61133C21.5131 8.58132 21.0084 8.53441 20.4736 8.45801C19.7567 8.35557 18.9599 8.19854 18.2236 7.95312C17.5047 7.71343 16.7479 7.3592 16.1973 6.80859C16.1943 6.80558 16.1915 6.80183 16.1885 6.79883C16.1854 6.79583 16.1817 6.79306 16.1787 6.79004C16.1757 6.78701 16.1729 6.7833 16.1699 6.78027C16.1669 6.77727 16.1632 6.77451 16.1602 6.77148C16.1571 6.76844 16.1544 6.76476 16.1514 6.76172C16.1483 6.7587 16.1447 6.75598 16.1416 6.75293C16.1386 6.74989 16.1358 6.7462 16.1328 6.74316C16.1297 6.74007 16.1261 6.73649 16.123 6.7334C16.12 6.73038 16.1163 6.72765 16.1133 6.72461C16.1103 6.72156 16.1075 6.71789 16.1045 6.71484L16.085 6.69531C16.0819 6.69229 16.0782 6.68957 16.0752 6.68652C16.072 6.68337 16.0686 6.67992 16.0654 6.67676C16.0624 6.6737 16.0597 6.67004 16.0566 6.66699L15.998 6.6084C15.9948 6.60516 15.9906 6.60188 15.9873 6.59863L15.9678 6.5791C15.9645 6.57581 15.9613 6.57164 15.958 6.56836C15.9548 6.56516 15.9515 6.5618 15.9482 6.55859C15.9449 6.55531 15.9408 6.55213 15.9375 6.54883C15.9343 6.54563 15.9309 6.54227 15.9277 6.53906C15.9244 6.53574 15.9213 6.53163 15.918 6.52832C15.9146 6.52501 15.9106 6.52188 15.9072 6.51855C15.9039 6.51525 15.9008 6.51111 15.8975 6.50781L15.8877 6.49805C15.8844 6.49475 15.8803 6.49159 15.877 6.48828C15.8736 6.48494 15.8705 6.48087 15.8672 6.47754C15.8638 6.47422 15.8598 6.47111 15.8564 6.46777C15.8531 6.46443 15.85 6.46036 15.8467 6.45703C15.8433 6.45363 15.8393 6.44968 15.8359 6.44629C15.8326 6.44299 15.8285 6.43984 15.8252 6.43652C15.8219 6.43316 15.8188 6.42914 15.8154 6.42578C15.8121 6.42243 15.8081 6.41939 15.8047 6.41602C15.8014 6.41267 15.7983 6.40861 15.7949 6.40527L15.7734 6.38379C15.7701 6.38044 15.7661 6.3774 15.7627 6.37402C15.7593 6.37065 15.7563 6.36665 15.7529 6.36328L15.71 6.32031C15.7066 6.31696 15.7026 6.31392 15.6992 6.31055L15.6455 6.25684C15.642 6.25326 15.6383 6.24868 15.6348 6.24512L15.5918 6.20215C15.5882 6.19856 15.5837 6.19501 15.5801 6.19141C15.5765 6.18788 15.5729 6.1842 15.5693 6.18066C15.5657 6.17704 15.5622 6.17256 15.5586 6.16895C15.5551 6.16542 15.5514 6.16174 15.5479 6.1582C15.5442 6.15459 15.5398 6.15109 15.5361 6.14746C15.5325 6.14382 15.529 6.13938 15.5254 6.13574C15.5219 6.13221 15.5182 6.12854 15.5146 6.125C15.511 6.12136 15.5066 6.11791 15.5029 6.11426C15.4993 6.11059 15.4958 6.1062 15.4922 6.10254C15.4887 6.09901 15.485 6.09533 15.4814 6.0918C15.4778 6.0882 15.4733 6.08466 15.4697 6.08105C15.4661 6.07741 15.4626 6.07297 15.459 6.06934C15.4553 6.0657 15.4509 6.06225 15.4473 6.05859C15.4436 6.05492 15.4402 6.05054 15.4365 6.04688C15.4328 6.04322 15.4285 6.0398 15.4248 6.03613C15.4212 6.03246 15.4177 6.02808 15.4141 6.02441C15.4104 6.02077 15.406 6.01733 15.4023 6.01367C15.3987 6.01002 15.3952 6.0056 15.3916 6.00195C15.3879 5.99822 15.3836 5.99396 15.3799 5.99023C15.3762 5.98658 15.3718 5.98317 15.3682 5.97949C15.3645 5.97579 15.3611 5.97147 15.3574 5.96777C15.3537 5.96403 15.3494 5.9598 15.3457 5.95605C15.342 5.95242 15.3376 5.94897 15.334 5.94531C15.3303 5.94161 15.3269 5.93729 15.3232 5.93359C15.3195 5.92983 15.3153 5.92564 15.3115 5.92188C15.3078 5.9182 15.3035 5.91482 15.2998 5.91113C15.2961 5.90743 15.2928 5.90311 15.2891 5.89941L15.2656 5.87598C15.2619 5.8723 15.2576 5.86893 15.2539 5.86523C15.2501 5.86144 15.246 5.85731 15.2422 5.85352C15.2385 5.84981 15.2351 5.84549 15.2314 5.8418L15.1963 5.80664C15.1926 5.80296 15.1883 5.7996 15.1846 5.7959L15.0322 5.64355C15.0283 5.63965 15.0244 5.63475 15.0205 5.63086L14.9736 5.58398C14.9697 5.58008 14.9648 5.57618 14.9609 5.57227L14.9492 5.56055C14.9453 5.55661 14.9414 5.55177 14.9375 5.54785L14.9141 5.52441C14.9101 5.52049 14.9053 5.51663 14.9014 5.5127L14.8896 5.50098C14.8857 5.49702 14.8819 5.49222 14.8779 5.48828C14.8741 5.48443 14.8701 5.48042 14.8662 5.47656C14.8623 5.47263 14.8575 5.46879 14.8535 5.46484C14.8497 5.46099 14.8457 5.45698 14.8418 5.45312C14.8379 5.44916 14.834 5.44438 14.8301 5.44043C14.8262 5.43657 14.8222 5.43257 14.8184 5.42871C14.8144 5.42476 14.8096 5.42095 14.8057 5.41699C14.8017 5.41302 14.7979 5.40825 14.7939 5.4043C14.7901 5.40044 14.7861 5.39644 14.7822 5.39258C14.7782 5.38862 14.7735 5.38482 14.7695 5.38086C14.7656 5.3769 14.7618 5.37211 14.7578 5.36816C14.754 5.36431 14.75 5.3603 14.7461 5.35645C14.7421 5.35248 14.7374 5.3487 14.7334 5.34473C14.7294 5.34075 14.7256 5.336 14.7217 5.33203C14.7178 5.32818 14.7138 5.32417 14.71 5.32031C14.706 5.31636 14.7012 5.31255 14.6973 5.30859C14.6933 5.3046 14.6895 5.29988 14.6855 5.2959C14.6816 5.29194 14.6768 5.28815 14.6729 5.28418C14.6689 5.28023 14.6651 5.27542 14.6611 5.27148C14.6573 5.26763 14.6533 5.26362 14.6494 5.25977C14.6454 5.2558 14.6407 5.25203 14.6367 5.24805C14.6327 5.24404 14.629 5.23934 14.625 5.23535C14.621 5.23138 14.6163 5.22761 14.6123 5.22363C14.6084 5.21966 14.6045 5.21489 14.6006 5.21094C14.5967 5.20708 14.5927 5.20308 14.5889 5.19922C14.5849 5.19528 14.5801 5.19145 14.5762 5.1875C14.5722 5.18352 14.5684 5.17877 14.5645 5.1748C14.5605 5.17083 14.5557 5.16707 14.5518 5.16309C14.5478 5.15907 14.544 5.1544 14.54 5.15039C14.536 5.1464 14.5313 5.14268 14.5273 5.13867C14.5234 5.13467 14.5196 5.12997 14.5156 5.12598C14.5116 5.12201 14.5069 5.11824 14.5029 5.11426C14.499 5.11027 14.4952 5.10553 14.4912 5.10156C14.4872 5.09761 14.4825 5.0938 14.4785 5.08984C14.4746 5.08588 14.4707 5.0811 14.4668 5.07715L14.4062 5.0166C14.4023 5.01265 14.3975 5.00884 14.3936 5.00488C14.3896 5.00091 14.3858 4.99615 14.3818 4.99219C14.3779 4.98823 14.3731 4.98443 14.3691 4.98047C14.3652 4.97649 14.3614 4.97174 14.3574 4.96777C14.3534 4.96382 14.3487 4.96002 14.3447 4.95605C14.3408 4.95207 14.337 4.94733 14.333 4.94336C14.329 4.9394 14.3243 4.93561 14.3203 4.93164C14.3164 4.92766 14.3126 4.92291 14.3086 4.91895C14.3046 4.91498 14.2999 4.9112 14.2959 4.90723C14.2919 4.90324 14.2881 4.8985 14.2842 4.89453C14.2802 4.89057 14.2755 4.88678 14.2715 4.88281C14.2675 4.87883 14.2637 4.87409 14.2598 4.87012C14.2558 4.86615 14.251 4.86237 14.2471 4.8584C14.2431 4.85441 14.2393 4.84968 14.2354 4.8457C14.2314 4.84174 14.2266 4.83796 14.2227 4.83398C14.2187 4.82999 14.2149 4.82526 14.2109 4.82129C14.2069 4.81732 14.2022 4.81355 14.1982 4.80957C14.1943 4.80558 14.1905 4.80085 14.1865 4.79688C14.1825 4.7929 14.1778 4.78914 14.1738 4.78516C14.1699 4.78116 14.1661 4.77644 14.1621 4.77246C14.1581 4.76848 14.1534 4.76473 14.1494 4.76074C14.1454 4.75674 14.1417 4.75204 14.1377 4.74805C14.1337 4.74406 14.129 4.74032 14.125 4.73633C14.121 4.73231 14.1173 4.72764 14.1133 4.72363C14.1093 4.71963 14.1046 4.71592 14.1006 4.71191C14.0966 4.70789 14.0929 4.70323 14.0889 4.69922C14.0849 4.69523 14.0802 4.6915 14.0762 4.6875C14.0722 4.6835 14.0684 4.67879 14.0645 4.6748C14.0605 4.67084 14.0557 4.66706 14.0518 4.66309C14.0478 4.65911 14.044 4.65435 14.04 4.65039L14.0039 4.61426C13.9999 4.6103 13.9952 4.6065 13.9912 4.60254C13.9872 4.59854 13.9835 4.59383 13.9795 4.58984C13.9755 4.58586 13.9708 4.58212 13.9668 4.57812C13.9628 4.57413 13.9591 4.56941 13.9551 4.56543L13.9189 4.5293C13.9149 4.52532 13.9102 4.52156 13.9062 4.51758C13.9023 4.51358 13.8985 4.50887 13.8945 4.50488C13.8907 4.50102 13.8867 4.49702 13.8828 4.49316C13.8789 4.48924 13.874 4.48537 13.8701 4.48145C13.8662 4.47746 13.8624 4.47272 13.8584 4.46875C13.8544 4.46478 13.8497 4.461 13.8457 4.45703C13.8418 4.45308 13.8379 4.44827 13.834 4.44434C13.8301 4.44048 13.8261 4.43647 13.8223 4.43262C13.8183 4.42866 13.8135 4.42486 13.8096 4.4209C13.8056 4.41694 13.8018 4.41214 13.7979 4.4082C13.794 4.40434 13.79 4.40034 13.7861 4.39648C13.7822 4.39253 13.7774 4.38872 13.7734 4.38477C13.7696 4.38091 13.7656 4.3769 13.7617 4.37305C13.7578 4.36908 13.754 4.3643 13.75 4.36035C13.7461 4.35649 13.7421 4.35249 13.7383 4.34863C13.7343 4.3447 13.7295 4.34085 13.7256 4.33691C13.7216 4.33295 13.7178 4.32816 13.7139 4.32422L13.6904 4.30078C13.6865 4.29686 13.6817 4.29299 13.6777 4.28906C13.6738 4.28511 13.6699 4.2803 13.666 4.27637L13.6426 4.25293C13.6386 4.24901 13.6338 4.24513 13.6299 4.24121L13.6064 4.21777C13.6025 4.21384 13.5986 4.20898 13.5947 4.20508L13.5596 4.16992C13.5557 4.16603 13.5508 4.16209 13.5469 4.1582L13.3945 4.00586C13.3908 4.00215 13.3875 3.99783 13.3838 3.99414L13.3486 3.95898C13.3449 3.9553 13.3406 3.95193 13.3369 3.94824C13.3331 3.94444 13.329 3.94032 13.3252 3.93652C13.3215 3.93281 13.3181 3.9285 13.3145 3.9248L13.291 3.90137C13.2873 3.89768 13.283 3.89432 13.2793 3.89062C13.2755 3.88685 13.2713 3.88267 13.2676 3.87891C13.2639 3.8752 13.2605 3.87088 13.2568 3.86719C13.2531 3.86342 13.2489 3.85922 13.2451 3.85547C13.2414 3.85182 13.2371 3.84838 13.2334 3.84473C13.2297 3.84102 13.2263 3.8367 13.2227 3.83301C13.219 3.82933 13.2146 3.82594 13.2109 3.82227C13.2073 3.81861 13.2038 3.81418 13.2002 3.81055C13.1965 3.80681 13.1922 3.80255 13.1885 3.79883C13.1848 3.79516 13.1804 3.79176 13.1768 3.78809C13.1731 3.78438 13.1697 3.78006 13.166 3.77637C13.1623 3.77268 13.158 3.76931 13.1543 3.76562C13.1506 3.76193 13.1472 3.75758 13.1436 3.75391C13.1399 3.75024 13.1355 3.74684 13.1318 3.74316C13.1282 3.73947 13.1248 3.73512 13.1211 3.73145C13.1174 3.72777 13.113 3.72438 13.1094 3.7207C13.1057 3.71702 13.1023 3.71264 13.0986 3.70898C13.095 3.70536 13.0905 3.70187 13.0869 3.69824C13.0834 3.69471 13.0797 3.69103 13.0762 3.6875C13.0725 3.68385 13.0691 3.67941 13.0654 3.67578C13.0618 3.67214 13.0573 3.66868 13.0537 3.66504C13.0501 3.66141 13.0466 3.65692 13.043 3.65332L13.0215 3.63184C13.0179 3.62824 13.0134 3.62469 13.0098 3.62109C13.0062 3.61746 13.0026 3.61298 12.999 3.60938L12.9775 3.58789C12.9739 3.58431 12.9694 3.58073 12.9658 3.57715L12.9229 3.53418C12.9193 3.53061 12.9156 3.526 12.9121 3.52246L12.8906 3.50098C12.8872 3.49762 12.8832 3.49458 12.8799 3.49121L12.8477 3.45898C12.8443 3.4556 12.8413 3.45161 12.8379 3.44824L12.8164 3.42676C12.813 3.4234 12.809 3.42036 12.8057 3.41699C12.8022 3.41353 12.7984 3.40969 12.7949 3.40625C12.7916 3.40286 12.7885 3.39887 12.7852 3.39551C12.7817 3.39206 12.7778 3.38819 12.7744 3.38477C12.771 3.38142 12.767 3.37835 12.7637 3.375C12.7603 3.37161 12.7573 3.36762 12.7539 3.36426L12.7227 3.33301C12.7193 3.32969 12.7152 3.32656 12.7119 3.32324C12.7086 3.3199 12.7055 3.31581 12.7021 3.3125L12.6719 3.28223C12.6685 3.27891 12.6645 3.27578 12.6611 3.27246C12.6578 3.26912 12.6547 3.26503 12.6514 3.26172C12.6482 3.25851 12.6448 3.25515 12.6416 3.25195C12.6383 3.24866 12.6342 3.24548 12.6309 3.24219C12.6276 3.23898 12.6243 3.23562 12.6211 3.23242C12.6178 3.22912 12.6146 3.22495 12.6113 3.22168L12.5918 3.20215C12.5885 3.1989 12.5843 3.19562 12.5811 3.19238L12.5127 3.12402C12.5097 3.12096 12.5069 3.1173 12.5039 3.11426L12.4844 3.09473C12.4813 3.09169 12.4776 3.08898 12.4746 3.08594C12.4716 3.08289 12.4688 3.0792 12.4658 3.07617C12.4627 3.07305 12.4592 3.06951 12.4561 3.06641C12.453 3.06337 12.4493 3.06066 12.4463 3.05762C12.4433 3.05459 12.4405 3.05085 12.4375 3.04785C12.4344 3.04476 12.4308 3.04115 12.4277 3.03809C12.4247 3.03509 12.421 3.03229 12.418 3.0293C12.415 3.02627 12.4122 3.02253 12.4092 3.01953C12.4062 3.01654 12.4024 3.01373 12.3994 3.01074C12.3964 3.00774 12.3936 3.00395 12.3906 3.00098C12.3877 2.99809 12.3847 2.99506 12.3818 2.99219C12.3788 2.98921 12.375 2.98637 12.3721 2.9834C12.3691 2.98038 12.3663 2.97662 12.3633 2.97363C12.3604 2.97075 12.3574 2.96772 12.3545 2.96484C12.3515 2.96188 12.3477 2.95901 12.3447 2.95605C12.3418 2.95317 12.3388 2.95014 12.3359 2.94727C12.333 2.94429 12.3301 2.94043 12.3271 2.9375L12.248 2.8584C12.2453 2.85569 12.242 2.8533 12.2393 2.85059C12.2364 2.84777 12.2333 2.84459 12.2305 2.8418C12.2278 2.83906 12.2254 2.83572 12.2227 2.83301C12.2208 2.83111 12.2187 2.82904 12.2168 2.82715C12.2153 2.82878 12.2145 2.83143 12.2129 2.83301Z" fill="#E5DFAB"/>
</svg>
