<svg width="16" height="16" viewBox="0 0 16 16" fill="none" xmlns="http://www.w3.org/2000/svg">
<path d="M8 0C12.4183 0 16 3.58172 16 8C16 12.4183 12.4183 16 8 16C3.58172 16 0 12.4183 0 8C0 3.58172 3.58172 0 8 0ZM8 1C4.13401 1 1 4.13401 1 8C1 11.866 4.13401 15 8 15C11.866 15 15 11.866 15 8C15 4.13401 11.866 1 8 1ZM11.7188 5.58691C11.9469 5.43159 12.2576 5.49068 12.4131 5.71875C12.5684 5.94688 12.5093 6.25759 12.2812 6.41309L6.41504 10.4131L6.05176 10.6611L5.75977 10.332L3.62598 7.93262C3.44253 7.72624 3.46162 7.41003 3.66797 7.22656C3.87436 7.0431 4.19056 7.06119 4.37402 7.26758L6.21387 9.33887L11.7188 5.58691Z" fill="#5FBAD3"/>
</svg>
