<svg width="25" height="34" viewBox="0 0 25 34" fill="none" xmlns="http://www.w3.org/2000/svg">
<path d="M12.7119 0.0146484C18.5967 0.313323 23.2764 5.17963 23.2764 11.1387L23.2617 11.7119C23.033 16.2198 20.1228 20.017 16.0957 21.5488C16.1352 21.5539 16.1752 21.5582 16.2148 21.5635C17.2897 21.7068 18.4596 21.9258 19.498 22.2656C20.504 22.5949 21.5395 23.0856 22.1885 23.8643C22.7889 24.5849 23.1835 25.5837 23.457 26.5684C23.7367 27.575 23.9178 28.6744 24.0371 29.6768C24.1569 30.6827 24.2173 31.6138 24.2471 32.292C24.262 32.6314 24.2687 32.9094 24.2725 33.1035C24.2743 33.2005 24.2759 33.2774 24.2764 33.3301V33.4141C24.2729 33.4142 24.2156 33.415 23.2764 33.415C22.3413 33.415 22.2803 33.415 22.2764 33.415V33.3486C22.2759 33.3024 22.2752 33.2323 22.2734 33.1426C22.27 32.9627 22.2631 32.7011 22.249 32.3799C22.2208 31.7355 22.164 30.856 22.0518 29.9131C21.939 28.9664 21.7727 27.9763 21.5303 27.1035C21.2818 26.2092 20.9798 25.5377 20.6523 25.1445C20.3732 24.8096 19.784 24.4642 18.876 24.167C18.0002 23.8804 16.9646 23.681 15.9512 23.5459C14.9432 23.4115 13.9859 23.3435 13.2793 23.3096C12.9274 23.2927 12.6392 23.2845 12.4404 23.2803C12.3412 23.2782 12.2633 23.2779 12.2119 23.2773C12.1869 23.2771 12.1677 23.2764 12.1553 23.2764H12.1221C12.1097 23.2764 12.09 23.2771 12.0645 23.2773C12.0132 23.2779 11.9361 23.2782 11.8369 23.2803C11.6381 23.2845 11.3494 23.2927 10.9971 23.3096C10.2905 23.3435 9.33315 23.4115 8.3252 23.5459C7.31204 23.681 6.27698 23.8805 5.40137 24.167C4.49328 24.4642 3.90429 24.8096 3.625 25.1445C3.29747 25.5376 2.99557 26.2091 2.74707 27.1035C2.50463 27.9763 2.33732 28.9664 2.22461 29.9131C2.11237 30.856 2.05659 31.7355 2.02832 32.3799C2.01424 32.7011 2.00739 32.9627 2.00391 33.1426C2.00217 33.2323 2.00043 33.3024 2 33.3486V33.415C1.99992 33.415 1.99074 33.415 1 33.415L0 33.4141V33.3906C7.09892e-05 33.3764 0.000739648 33.356 0.000976562 33.3301C0.00145864 33.2774 0.00202693 33.2005 0.00390625 33.1035C0.00767301 32.9094 0.015389 32.6314 0.0302734 32.292C0.0600235 31.6138 0.119516 30.6827 0.239258 29.6768C0.358593 28.6744 0.539717 27.575 0.819336 26.5684C1.09285 25.5838 1.48755 24.5848 2.08789 23.8643C2.73683 23.0857 3.77254 22.5948 4.77832 22.2656C5.81677 21.9258 6.98674 21.7068 8.06152 21.5635C8.10064 21.5583 8.13977 21.5539 8.17871 21.5488C4.15222 20.0167 1.24331 16.2193 1.01465 11.7119L1 11.1387C1 4.98716 5.98716 0 12.1387 0L12.7119 0.0146484ZM12.1387 2C7.09173 2 3 6.09173 3 11.1387C3.0002 16.1854 7.09185 20.2764 12.1387 20.2764C17.1852 20.276 21.2762 16.1852 21.2764 11.1387C21.2764 6.09194 17.1853 2.00035 12.1387 2Z" fill="#E5DFAB"/>
</svg>
