<svg width="24" height="34" viewBox="0 0 24 34" fill="none" xmlns="http://www.w3.org/2000/svg">
<path d="M12.9229 0C19.0405 0 24 4.95959 24 11.0771C23.9999 14.7078 22.2528 17.9301 19.5537 19.9502L22.8535 31.5215L23.373 33.335L12.7031 29.0576L0 33.3027L5.8584 19.6084C3.40752 17.5767 1.84577 14.5094 1.8457 11.0771C1.8457 4.95965 6.80532 0.00010089 12.9229 0ZM3.31348 30.2422L12.4434 27.1973L12.7646 27.0889L13.0781 27.2148L20.5605 30.2139L17.9229 20.96C16.4205 21.7215 14.7225 22.1533 12.9229 22.1533C10.9137 22.1533 9.03183 21.6149 7.40723 20.6797L3.31348 30.2422ZM12.9229 1.84668C7.82492 1.84678 3.69238 5.97924 3.69238 11.0771C3.69251 16.1749 7.825 20.3075 12.9229 20.3076C14.55 20.3076 16.0778 19.8845 17.4053 19.1455L17.3867 19.0791L17.6562 19.002C20.3498 17.3898 22.1532 14.4446 22.1533 11.0771C22.1533 5.97918 18.0209 1.84668 12.9229 1.84668Z" fill="#E5DFAB"/>
</svg>
