<svg width="18" height="18" viewBox="0 0 18 18" fill="none" xmlns="http://www.w3.org/2000/svg">
<path d="M9 0C13.9706 0 18 4.02944 18 9C18 13.9706 13.9706 18 9 18C8.82878 18 8.65871 17.9945 8.48985 17.9851L8.49635 17.5563V17.5315C8.49659 17.515 8.49703 17.4904 8.49749 17.4585C8.49843 17.3946 8.49996 17.3008 8.5017 17.1815C8.50518 16.9426 8.51024 16.6007 8.51622 16.1902C8.52817 15.369 8.54384 14.2713 8.55978 13.1668C8.56728 12.6472 8.57408 12.1252 8.58118 11.6295H12.0666V10.4555H8.59761C8.61231 9.41703 8.62358 8.6661 8.6236 8.59685C8.6236 8.43418 8.61198 7.70437 9.3699 6.94642C9.70897 6.60736 10.206 6.42472 10.6722 6.335C10.8981 6.29154 11.1002 6.27334 11.2446 6.26584C11.3164 6.26211 11.3731 6.26096 11.4101 6.26087C11.4285 6.26083 11.4422 6.2611 11.4502 6.26125C11.4534 6.26131 11.4558 6.26121 11.4571 6.26125L12.0437 6.2838L12.0884 5.11065L11.5018 5.0881C11.4919 5.0881 11.5019 5.09 11.5018 5.0881H11.4919C11.487 5.08796 11.4803 5.08749 11.4724 5.08734C11.4565 5.08704 11.4345 5.08689 11.4074 5.08696C11.3531 5.08709 11.2766 5.08862 11.1835 5.09345C10.9981 5.10309 10.7409 5.12663 10.4506 5.18249C9.88408 5.29149 9.11886 5.53718 8.53991 6.11604C7.4619 7.19405 7.44969 8.30036 7.44969 8.59685C7.44967 8.66018 7.43848 9.41149 7.4237 10.4555H4.69565V11.6295H7.40727C7.40026 12.1192 7.39368 12.6351 7.38625 13.15C7.37031 14.2544 7.35426 15.3519 7.34231 16.173C7.33633 16.5836 7.33127 16.9254 7.32779 17.1643C7.32604 17.2836 7.3249 17.3774 7.32396 17.4413C7.3235 17.4732 7.32306 17.4978 7.32282 17.5143C7.3227 17.5225 7.3225 17.5289 7.32244 17.533V17.5395L7.31785 17.8422C3.15133 17.0544 0 13.3956 0 9C0 4.02944 4.02944 0 9 0Z" fill="#657479"/>
</svg>
