<svg width="18" height="16" viewBox="0 0 18 16" fill="none" xmlns="http://www.w3.org/2000/svg">
<path d="M15 0C16.6569 1.93277e-07 18 1.34315 18 3V12.75C18 14.4069 16.6569 15.75 15 15.75H3C1.34315 15.75 3.02e-08 14.4069 0 12.75V3C0 1.34315 1.34315 4.83192e-08 3 0H15ZM9 4.5C7.13604 4.5 5.625 6.01104 5.625 7.875C5.625 9.73896 7.13604 11.25 9 11.25C10.864 11.25 12.375 9.73896 12.375 7.875C12.375 6.01104 10.864 4.5 9 4.5ZM9 5.625C10.2426 5.625 11.25 6.63236 11.25 7.875C11.25 9.11764 10.2426 10.125 9 10.125C7.75736 10.125 6.75 9.11764 6.75 7.875C6.75 6.63236 7.75736 5.625 9 5.625ZM15.1875 2.25C14.8768 2.25 14.625 2.50184 14.625 2.8125C14.625 3.12316 14.8768 3.375 15.1875 3.375C15.4982 3.375 15.75 3.12316 15.75 2.8125C15.75 2.50184 15.4982 2.25 15.1875 2.25Z" fill="#657479"/>
</svg>
