<svg width="36" height="36" viewBox="0 0 36 36" fill="none" xmlns="http://www.w3.org/2000/svg">
<path d="M18 0C27.9411 0 36 8.05887 36 18C36 27.9411 27.9411 36 18 36C8.05887 36 0 27.9411 0 18C0 8.05887 8.05887 0 18 0ZM18 2C9.16344 2 2 9.16344 2 18C2 26.8366 9.16344 34 18 34C26.8366 34 34 26.8366 34 18C34 9.16344 26.8366 2 18 2ZM18 6.5459C24.3258 6.54613 29.4548 11.6742 29.4551 18L29.4404 18.5898C29.1334 24.6418 24.1281 29.4549 18 29.4551L17.4111 29.4404C11.359 29.1337 6.54615 24.1283 6.5459 18C6.54614 11.6742 11.6742 6.54614 18 6.5459ZM18 8.5459C12.7788 8.54614 8.54614 12.7788 8.5459 18C8.54616 23.2212 12.7788 27.4548 18 27.4551C23.2212 27.4548 27.4548 23.2212 27.4551 18C27.4548 12.7787 23.2213 8.54613 18 8.5459ZM18.2529 13.0977C20.8465 13.2293 22.9092 15.3737 22.9092 18L22.9023 18.2529C22.7707 20.8465 20.6263 22.9091 18 22.9092L17.7471 22.9023C15.2372 22.775 13.2251 20.7628 13.0977 18.2529L13.0908 18C13.0908 15.2888 15.2888 13.0909 18 13.0908L18.2529 13.0977ZM18 15.0908C16.3934 15.0909 15.0908 16.3934 15.0908 18C15.0909 19.6066 16.3934 20.9091 18 20.9092C19.6066 20.9091 20.9091 19.6066 20.9092 18C20.9092 16.3934 19.6066 15.0909 18 15.0908Z" fill="#FFFEF8"/>
</svg>
