<svg width="19" height="12" viewBox="0 0 19 12" fill="none" xmlns="http://www.w3.org/2000/svg">
<path fill-rule="evenodd" clip-rule="evenodd" d="M10.9795 0.177505C11.1577 -0.0334387 11.4726 -0.0602559 11.6836 0.117934L18.0723 5.51442C18.1884 5.61266 18.2544 5.75882 18.25 5.9109C18.2455 6.06294 18.1714 6.20531 18.0498 6.29665L11.6611 11.0935C11.4404 11.2591 11.1268 11.2144 10.9609 10.9939C10.7952 10.7732 10.8399 10.4596 11.0605 10.2937L16.251 6.39625H0.5C0.223942 6.39625 0.000136389 6.17228 0 5.89625C8.86286e-05 5.62019 0.223912 5.39625 0.5 5.39625H16.3828L11.0381 0.881606C10.8273 0.703396 10.8014 0.388389 10.9795 0.177505Z" fill="#E5DFAB"/>
</svg>
