<svg width="37" height="25" viewBox="0 0 37 25" fill="none" xmlns="http://www.w3.org/2000/svg">
<path d="M18.0138 0C20.1899 1.53184e-05 21.7786 0.188113 23.3663 0.925781C24.9151 1.64546 26.3859 2.85545 28.4054 4.7002C29.1069 5.341 29.9002 5.87384 30.7287 6.38574C31.5265 6.87871 32.4256 7.39053 33.1847 7.91504C33.9593 8.4503 34.7093 9.077 35.2443 9.88867C35.7958 10.7257 36.0858 11.711 36.0177 12.8936C35.8864 15.1703 34.5891 16.525 33.0665 17.541C32.3232 18.037 31.4841 18.4805 30.6818 18.9131C29.8622 19.3549 29.0578 19.7972 28.297 20.3184C25.0319 22.5552 22.4476 24.1923 18.0138 24.1924C13.6201 24.1923 9.84415 22.262 7.62123 20.2314C7.10109 19.7564 6.43639 19.3371 5.66908 18.9033C4.93952 18.4909 4.05775 18.0354 3.29115 17.5586C1.7314 16.5883 0.144182 15.2386 0.00892639 12.8936C-0.132201 10.4441 1.42227 8.68278 3.04994 7.44141C3.87814 6.80983 4.78241 6.26843 5.60951 5.80176C6.4676 5.31761 7.18434 4.94398 7.77553 4.58398C8.49664 4.14484 9.18758 3.65859 9.91713 3.15039C10.6366 2.64924 11.3907 2.12866 12.1925 1.66504C13.8153 0.72677 15.6654 9.18508e-05 18.0138 0ZM18.0138 2C16.1198 2.00009 14.6161 2.57459 13.1945 3.39648C12.4743 3.81288 11.7825 4.28823 11.0607 4.79102C10.3489 5.28687 9.60086 5.81475 8.81557 6.29297C8.19224 6.67251 7.36255 7.10915 6.59193 7.54395C5.79004 7.9964 4.98072 8.4838 4.26283 9.03125C2.79814 10.1483 1.92353 11.347 2.006 12.7783C2.08247 14.1044 2.9241 14.9747 4.34779 15.8604C5.07274 16.3113 5.82208 16.6931 6.65346 17.1631C7.4471 17.6118 8.27542 18.1206 8.96986 18.7549C10.8761 20.4961 14.1853 22.1923 18.0138 22.1924C21.8021 22.1923 23.9532 20.8691 27.1662 18.668C28.0246 18.0799 28.9153 17.5939 29.7326 17.1533C30.5671 16.7034 31.309 16.3088 31.9562 15.877C33.2146 15.0372 33.9412 14.1728 34.0216 12.7783C34.0653 12.0207 33.8863 11.4628 33.5744 10.9893C33.2456 10.4904 32.7368 10.0372 32.047 9.56055C31.3418 9.07326 30.5693 8.63929 29.6769 8.08789C28.8149 7.55526 27.8969 6.9442 27.0568 6.17676C25.0277 4.32324 23.7605 3.31403 22.5236 2.73926C21.3258 2.18278 20.0799 2.00002 18.0138 2ZM18.0138 6.91797C21.1446 6.91797 23.6825 9.23608 23.6828 12.0957C23.6827 14.9555 21.1447 17.2744 18.0138 17.2744L17.7218 17.2676C14.7268 17.1286 12.3449 14.8659 12.3449 12.0957C12.3451 9.2362 14.8832 6.91815 18.0138 6.91797ZM18.0138 8.91797C15.8135 8.91815 14.3451 10.5073 14.3449 12.0957C14.3449 13.6842 15.8133 15.2742 18.0138 15.2744C20.2145 15.2744 21.6827 13.6843 21.6828 12.0957C21.6825 10.5073 20.2144 8.91797 18.0138 8.91797Z" fill="#FFFEF8"/>
</svg>
